<svg id="Layer_1" data-name="Layer 1" xmlns="http://www.w3.org/2000/svg" xmlns:xlink="http://www.w3.org/1999/xlink" viewBox="0 0 1500 800"><defs><style>.cls-1{fill:url(#linear-gradient);}.cls-2{fill:#beeac5;}.cls-3{fill:#25a84a;}.cls-4{fill:#73dd87;}.cls-5{fill:#037c20;}.cls-6{fill:#05280a;}</style><linearGradient id="linear-gradient" x1="750" y1="-1.5" x2="750" y2="799.69" gradientUnits="userSpaceOnUse"><stop offset="0" stop-color="#05280a"/><stop offset="0.39" stop-color="#052509"/><stop offset="0.65" stop-color="#041d07"/><stop offset="0.86" stop-color="#020e03"/><stop offset="1"/></linearGradient></defs><title>intro-wide</title><rect class="cls-1" y="-1.5" width="1500" height="800"/><path class="cls-2" d="M129.61,125l-10.16,3Q117,117.8,110.3,117.8a6.65,6.65,0,0,0-4.83,1.91,6.79,6.79,0,0,0-2.06,5.08,10,10,0,0,0,2.87,6.89,89.46,89.46,0,0,0,9.1,7.54,69,69,0,0,1,10.26,9.2,19.27,19.27,0,0,1,4.43,12.62A16.54,16.54,0,0,1,125,173.53q-5.18,5-13.73,5-17.6,0-20.87-19.31l10.16-3q2.11,12.32,10.71,12.32a7.55,7.55,0,0,0,5.73-2.21,7.72,7.72,0,0,0,2.11-5.63,9.81,9.81,0,0,0-2.67-6.64,56.91,56.91,0,0,0-7.54-6.74q-7.75-6-9.3-7.54-7.14-6.89-7.14-15t5.78-12.82a18.27,18.27,0,0,1,12.12-4.07Q125.19,107.84,129.61,125Z"/><path class="cls-2" d="M157.44,118.66V177.5H146.77V118.66H133.45v-9.81h37.27v9.81Z"/><path class="cls-2" d="M205.28,108.85h10.66v46.52q0,8.3-1.46,12.32-3.92,10.81-16.7,10.81-9.51,0-14.18-6.19a17.14,17.14,0,0,1-3.37-8,60,60,0,0,1-.6-9V108.85h10.66v48.23q0,5.83,1.51,8.4,1.81,3.07,6,3.07t6-3.07q1.51-2.51,1.51-8.4Z"/><path class="cls-2" d="M226.92,177.5V108.85h16.8q20,0,19.87,21.48V156q.15,21.48-19.87,21.48Zm10.66-9.81h5.18q5.48,0,7.85-3.27a11,11,0,0,0,1.91-4.83,45.77,45.77,0,0,0,.4-6.49V133.24a37.54,37.54,0,0,0-.5-7,10.93,10.93,0,0,0-1.81-4.3q-2.36-3.22-7.85-3.27h-5.18Z"/><path class="cls-2" d="M305,108.85v9.81H284.51v18.06H299.6v9.81H284.51v21.17H305v9.81H273.85V108.85Z"/><path class="cls-2" d="M350.86,108.85V177.5h-9.56L322.9,131.83V177.5H312.79V108.85h10.66l17.3,42.7v-42.7Z"/><path class="cls-2" d="M381.3,118.66V177.5H370.64V118.66H357.31v-9.81h37.27v9.81Z"/><path class="cls-2" d="M409.83,108.85v11l-6,14.23h-4l4.58-14.23h-4.58v-11Z"/><path class="cls-2" d="M455.76,125l-10.16,3q-2.46-10.21-9.15-10.21a6.65,6.65,0,0,0-4.83,1.91,6.79,6.79,0,0,0-2.06,5.08,10,10,0,0,0,2.87,6.89,89.46,89.46,0,0,0,9.1,7.54,69,69,0,0,1,10.26,9.2,19.27,19.27,0,0,1,4.43,12.62,16.54,16.54,0,0,1-5.08,12.47q-5.18,5-13.73,5-17.6,0-20.87-19.31l10.16-3q2.11,12.32,10.71,12.32a7.55,7.55,0,0,0,5.73-2.21,7.72,7.72,0,0,0,2.11-5.63,9.81,9.81,0,0,0-2.67-6.64,56.91,56.91,0,0,0-7.54-6.74q-7.75-6-9.3-7.54-7.14-6.89-7.14-15t5.78-12.82a18.27,18.27,0,0,1,12.12-4.07Q451.33,107.84,455.76,125Z"/><path class="cls-2" d="M516.94,131.18H506.33v-1.41q0-12-8-12a6.66,6.66,0,0,0-6.29,3.37,11.88,11.88,0,0,0-1.41,4.53q-.2,2.31-.2,5.33v22.83q0,7.19,1.16,10.26,1.71,4.43,6.89,4.43,8.2,0,8.2-13.48v-1.71h10.61q0,1.76.05,2.56,0,10-4,15.79-4.73,6.79-14.84,6.79-10.71,0-15.39-7.64a20,20,0,0,1-2.92-8.8q-.4-4-.4-9.66V133.24q0-9.86,1.26-13.68a15.59,15.59,0,0,1,8-9.71,20.43,20.43,0,0,1,9.25-2q8.75,0,13.63,5.38Q517,118.86,517,129,517,129.77,516.94,131.18Z"/><path class="cls-2" d="M563.42,130.68v25a42,42,0,0,1-.9,9.56,18.72,18.72,0,0,1-3,6.69q-4.78,6.59-14.79,6.59t-14.84-6.59a18.92,18.92,0,0,1-3.27-7.85,50.57,50.57,0,0,1-.65-8.4v-25a41.94,41.94,0,0,1,.91-9.56,18.72,18.72,0,0,1,3-6.69q4.83-6.59,14.84-6.59t14.79,6.59a18.09,18.09,0,0,1,3.27,7.85A50.57,50.57,0,0,1,563.42,130.68Zm-26.81.2v24.59a36.81,36.81,0,0,0,.4,6.74q1.46,6.34,7.69,6.34,4.78,0,6.69-3.72a10.86,10.86,0,0,0,1.21-4.43q.15-2,.15-4.93V130.88a37.23,37.23,0,0,0-.4-6.79q-1.41-6.29-7.64-6.29-4.83,0-6.74,3.72a10.75,10.75,0,0,0-1.21,4.38Q536.61,128,536.62,130.88Z"/><path class="cls-2" d="M610.51,130.68v25a42,42,0,0,1-.9,9.56,18.72,18.72,0,0,1-3,6.69q-4.78,6.59-14.79,6.59T577,171.92a18.92,18.92,0,0,1-3.27-7.85,50.57,50.57,0,0,1-.65-8.4v-25a41.94,41.94,0,0,1,.91-9.56,18.72,18.72,0,0,1,3-6.69q4.83-6.59,14.84-6.59t14.79,6.59a18.09,18.09,0,0,1,3.27,7.85A50.57,50.57,0,0,1,610.51,130.68Zm-26.81.2v24.59a36.81,36.81,0,0,0,.4,6.74q1.46,6.34,7.69,6.34,4.78,0,6.69-3.72a10.86,10.86,0,0,0,1.21-4.43q.15-2,.15-4.93V130.88a37.23,37.23,0,0,0-.4-6.79q-1.41-6.29-7.64-6.29-4.83,0-6.74,3.72a10.75,10.75,0,0,0-1.21,4.38Q583.7,128,583.7,130.88Z"/><path class="cls-2" d="M631.49,149.69V177.5H620.83V108.85h17.65q9.86,0,14.43,4.43,5.43,5.23,5.43,16t-5.43,16a14.45,14.45,0,0,1-5.83,3.37,29.63,29.63,0,0,1-8.6,1.06Zm0-9.81h4.63q5.88,0,8.25-1.86,3-2.26,3-8.75t-3-8.75q-2.36-1.86-8.25-1.86h-4.63Z"/><path class="cls-2" d="M697.24,108.85v9.81H676.77v18.06h15.09v9.81H676.77v21.17h20.47v9.81H666.11V108.85Z"/><path class="cls-2" d="M715.71,149.34V177.5H705V108.85h16.7q8.85,0,13.58,4.12,6.13,5.33,6.14,15.54,0,13.08-9.25,17.85l10.11,31.13H731.15L722,149.34Zm0-9.81h3.87a17.17,17.17,0,0,0,6.24-.8q4.68-2,4.68-9.66,0-5.63-2.62-8.2a6.42,6.42,0,0,0-3.67-1.91,30.25,30.25,0,0,0-4.63-.3h-3.87Z"/><path class="cls-2" d="M776.12,162.56H761.49l-2.77,14.94H748.31l13.18-68.65h14.58L790,177.5H779Zm-1.81-9.81L768.68,122l-5.48,30.73Z"/><path class="cls-2" d="M817.17,118.66V177.5H806.51V118.66H793.18v-9.81h37.27v9.81Z"/><path class="cls-2" d="M849.32,108.85V177.5H838.66V108.85Z"/><path class="cls-2" d="M884.64,177.5H871.46l-14.74-68.65h11l10.36,52.2,9.05-52.2h10.76Z"/><path class="cls-2" d="M936.5,108.85v9.81H916v18.06h15.09v9.81H916v21.17H936.5v9.81H905.37V108.85Z"/><path class="cls-2" d="M986,162.56H971.33l-2.77,14.94H958.15l13.18-68.65h14.58l13.88,68.65H988.88Zm-1.81-9.81L978.52,122,973,152.76Z"/><path class="cls-2" d="M1043.61,125l-10.16,3q-2.46-10.21-9.15-10.21a6.65,6.65,0,0,0-4.83,1.91,6.79,6.79,0,0,0-2.06,5.08,10,10,0,0,0,2.87,6.89,89.46,89.46,0,0,0,9.1,7.54,69,69,0,0,1,10.26,9.2,19.27,19.27,0,0,1,4.43,12.62,16.54,16.54,0,0,1-5.08,12.47q-5.18,5-13.73,5-17.6,0-20.87-19.31l10.16-3q2.11,12.32,10.71,12.32a7.55,7.55,0,0,0,5.73-2.21,7.72,7.72,0,0,0,2.11-5.63,9.81,9.81,0,0,0-2.67-6.64,56.91,56.91,0,0,0-7.54-6.74q-7.75-6-9.3-7.54-7.14-6.89-7.14-15t5.78-12.82a18.27,18.27,0,0,1,12.12-4.07Q1039.19,107.84,1043.61,125Z"/><path class="cls-2" d="M1088,125l-10.16,3q-2.46-10.21-9.15-10.21a6.65,6.65,0,0,0-4.83,1.91,6.79,6.79,0,0,0-2.06,5.08,10,10,0,0,0,2.87,6.89,89.46,89.46,0,0,0,9.1,7.54,69,69,0,0,1,10.26,9.2,19.27,19.27,0,0,1,4.43,12.62,16.54,16.54,0,0,1-5.08,12.47q-5.18,5-13.73,5-17.6,0-20.87-19.31l10.16-3q2.11,12.32,10.71,12.32a7.55,7.55,0,0,0,5.73-2.21,7.72,7.72,0,0,0,2.11-5.63,9.81,9.81,0,0,0-2.67-6.64,56.91,56.91,0,0,0-7.54-6.74q-7.75-6-9.3-7.54-7.14-6.89-7.14-15t5.78-12.82a18.27,18.27,0,0,1,12.12-4.07Q1083.61,107.84,1088,125Z"/><path class="cls-2" d="M1133.16,130.68v25a42,42,0,0,1-.9,9.56,18.72,18.72,0,0,1-3,6.69q-4.78,6.59-14.79,6.59t-14.84-6.59a18.92,18.92,0,0,1-3.27-7.85,50.57,50.57,0,0,1-.65-8.4v-25a41.94,41.94,0,0,1,.91-9.56,18.72,18.72,0,0,1,3-6.69q4.83-6.59,14.84-6.59t14.79,6.59a18.09,18.09,0,0,1,3.27,7.85A50.57,50.57,0,0,1,1133.16,130.68Zm-26.81.2v24.59a36.81,36.81,0,0,0,.4,6.74q1.46,6.34,7.69,6.34,4.78,0,6.69-3.72a10.86,10.86,0,0,0,1.21-4.43q.15-2,.15-4.93V130.88a37.23,37.23,0,0,0-.4-6.79q-1.41-6.29-7.64-6.29-4.83,0-6.74,3.72a10.75,10.75,0,0,0-1.21,4.38Q1106.35,128,1106.35,130.88Z"/><path class="cls-2" d="M1180,131.18h-10.61v-1.41q0-12-8-12a6.66,6.66,0,0,0-6.29,3.37,11.88,11.88,0,0,0-1.41,4.53q-.2,2.31-.2,5.33v22.83q0,7.19,1.16,10.26,1.71,4.43,6.89,4.43,8.2,0,8.2-13.48v-1.71h10.61q0,1.76.05,2.56,0,10-4,15.79-4.73,6.79-14.84,6.79-10.71,0-15.39-7.64a20,20,0,0,1-2.92-8.8q-.4-4-.4-9.66V133.24q0-9.86,1.26-13.68a15.59,15.59,0,0,1,8-9.71,20.43,20.43,0,0,1,9.25-2q8.75,0,13.63,5.38Q1180,118.86,1180,129,1180,129.77,1180,131.18Z"/><path class="cls-2" d="M1200.37,108.85V177.5h-10.66V108.85Z"/><path class="cls-2" d="M1236.65,162.56H1222l-2.77,14.94h-10.41L1222,108.85h14.58l13.88,68.65h-10.91Zm-1.81-9.81L1229.2,122l-5.48,30.73Z"/><path class="cls-2" d="M1277.7,118.66V177.5H1267V118.66h-13.33v-9.81H1291v9.81Z"/><path class="cls-2" d="M1309.85,108.85V177.5h-10.66V108.85Z"/><path class="cls-2" d="M1357.54,130.68v25a42,42,0,0,1-.9,9.56,18.72,18.72,0,0,1-3,6.69q-4.78,6.59-14.79,6.59T1324,171.92a18.92,18.92,0,0,1-3.27-7.85,50.57,50.57,0,0,1-.65-8.4v-25a41.94,41.94,0,0,1,.91-9.56,18.72,18.72,0,0,1,3-6.69q4.83-6.59,14.84-6.59t14.79,6.59a18.09,18.09,0,0,1,3.27,7.85A50.57,50.57,0,0,1,1357.54,130.68Zm-26.81.2v24.59a36.81,36.81,0,0,0,.4,6.74q1.46,6.34,7.69,6.34,4.78,0,6.69-3.72a10.86,10.86,0,0,0,1.21-4.43q.15-2,.15-4.93V130.88a37.23,37.23,0,0,0-.4-6.79q-1.41-6.29-7.64-6.29-4.83,0-6.74,3.72a10.75,10.75,0,0,0-1.21,4.38Q1330.73,128,1330.73,130.88Z"/><path class="cls-2" d="M1405.93,108.85V177.5h-9.56L1378,131.83V177.5h-10.11V108.85h10.66l17.3,42.7v-42.7Z"/><circle class="cls-3" cx="276.25" cy="437.5" r="198"/><polygon class="cls-4" points="192.25 583.5 192.25 523.5 138.25 523.5 210.25 295.5 276.25 505.5 342.25 295.5 414.25 523.5 366.25 523.5 366.25 583.5 324.25 583.5 324.25 523.5 234.25 523.5 234.25 583.5 192.25 583.5"/><circle class="cls-3" cx="750" cy="437.5" r="198"/><polygon class="cls-5" points="666 583.5 666 523.5 612 523.5 684 295.5 750 505.5 816 295.5 888 523.5 840 523.5 840 583.5 798 583.5 798 523.5 708 523.5 708 583.5 666 583.5"/><circle class="cls-3" cx="1223.75" cy="443.5" r="198"/><polygon class="cls-6" points="1139.75 589.5 1139.75 529.5 1085.75 529.5 1157.75 301.5 1223.75 511.5 1289.75 301.5 1361.75 529.5 1313.75 529.5 1313.75 589.5 1271.75 589.5 1271.75 529.5 1181.75 529.5 1181.75 589.5 1139.75 589.5"/></svg>