<?xml version="1.0" encoding="utf-8"?>
<!-- Generator: Adobe Illustrator 21.1.0, SVG Export Plug-In . SVG Version: 6.00 Build 0)  -->
<svg version="1.1" id="Layer_1" xmlns="http://www.w3.org/2000/svg" xmlns:xlink="http://www.w3.org/1999/xlink" x="0px" y="0px"
	 viewBox="0 0 50 50" style="enable-background:new 0 0 50 50;" xml:space="preserve">
<style type="text/css">
	.st0{fill:#F2F2F2;}
</style>
<g>
	<path class="st0" d="M43.2,1C46.4,1,49,3.6,49,6.8v36.4c0,3.2-2.6,5.8-5.8,5.8H6.8C3.6,49,1,46.4,1,43.2V6.8C1,3.6,3.6,1,6.8,1
		H43.2 M43.2,0.5H6.8c-3.5,0-6.3,2.8-6.3,6.3v36.4c0,3.5,2.8,6.3,6.3,6.3h36.4c3.5,0,6.3-2.8,6.3-6.3V6.8
		C49.5,3.3,46.7,0.5,43.2,0.5L43.2,0.5z"/>
</g>
<g>
	<path class="st0" d="M25,3.5c3.3,0,6,2.7,6,6s-2.7,6-6,6s-6-2.7-6-6S21.7,3.5,25,3.5 M25,3c-3.6,0-6.5,2.9-6.5,6.5S21.4,16,25,16
		s6.5-2.9,6.5-6.5S28.6,3,25,3L25,3z"/>
</g>
<g>
	<path class="st0" d="M25,19c3.3,0,6,2.7,6,6s-2.7,6-6,6s-6-2.7-6-6S21.7,19,25,19 M25,18.5c-3.6,0-6.5,2.9-6.5,6.5s2.9,6.5,6.5,6.5
		s6.5-2.9,6.5-6.5S28.6,18.5,25,18.5L25,18.5z"/>
</g>
<g>
	<path class="st0" d="M25,34.5c3.3,0,6,2.7,6,6s-2.7,6-6,6s-6-2.7-6-6S21.7,34.5,25,34.5 M25,34c-3.6,0-6.5,2.9-6.5,6.5
		S21.4,47,25,47s6.5-2.9,6.5-6.5S28.6,34,25,34L25,34z"/>
</g>
</svg>
