<svg id="Layer_1" data-name="Layer 1" xmlns="http://www.w3.org/2000/svg" viewBox="0 0 216 156"><defs><style>.cls-1{fill:#bae8c5;}.cls-2,.cls-5{font-size:24px;font-family:Phosphate-Solid, Phosphate;}.cls-2,.cls-6,.cls-8{fill:#0c4c19;}.cls-3{fill:#b3b3b3;letter-spacing:0em;}.cls-4,.cls-7{fill:#90d392;}.cls-4,.cls-6{letter-spacing:0em;}.cls-5{fill:#999;}.cls-9{fill:#333;}.cls-10{fill:#25a84a;}.cls-11{fill:#73dd87;}.cls-12{fill:#3ac15d;}.cls-13{fill:#197f34;}</style></defs><title>sca_bg</title><rect class="cls-1" width="216" height="156"/><text class="cls-2" transform="translate(4 35.5)">Students’<tspan class="cls-3" x="107.01" y="0"> </tspan><tspan class="cls-4" x="111.81" y="0">Cooperative Association</tspan></text><text class="cls-5" transform="translate(-109 57.7)">Students’<tspan class="cls-3" x="107.01" y="0"> </tspan><tspan class="cls-6" x="111.81" y="0">Cooperative </tspan><tspan class="cls-7" x="265.58" y="0">Association</tspan></text><text class="cls-5" transform="translate(-262 79.9)">Students’ Cooperative <tspan class="cls-8" x="265.58" y="0">Association</tspan><tspan class="cls-9" x="408.19" y="0"> </tspan><tspan class="cls-7" x="412.99" y="0">Students’</tspan></text><circle class="cls-10" cx="36" cy="118" r="33"/><circle class="cls-10" cx="108" cy="118" r="33"/><circle class="cls-10" cx="180" cy="118" r="33"/><polygon class="cls-11" points="22 144 22 134 13 134 25 96 36 131 47 96 59 134 51 134 51 144 44 144 44 134 29 134 29 144 22 144"/><polygon class="cls-12" points="94 144 94 134 85 134 97 96 108 131 119 96 131 134 123 134 123 144 116 144 116 134 101 134 101 144 94 144"/><polygon class="cls-13" points="166 144 166 134 157 134 169 96 180 131 191 96 203 134 195 134 195 144 188 144 188 134 173 134 173 144 166 144"/></svg>