<svg id="Layer_1" data-name="Layer 1" xmlns="http://www.w3.org/2000/svg" viewBox="0 0 1354 536"><defs><style>.cls-1{fill:#0d0419;}.cls-2{fill:#330e63;}.cls-3{fill:#010001;}.cls-4{fill:#1b0835;}</style></defs><title>tree-bg</title><path class="cls-1" d="M1354,309v2l-4.25,1.06-2.56-3.3-5.08,3.51v4.77l5.22,5.21-2.19,5.85,7.14,9.49-1.46,7.4a26.14,26.14,0,0,0-5.16.08c-1.47.31-2.77,1.33-4.19,1.9s-2.93,1-4.42,1.45c-.3,2.44.7,3.26,3.2,3.74,1.79.34,3.1,2.76,5.29,2.77a38.72,38.72,0,0,0,5.47-.71c0,2.69-.13,5.19,0,7.67s.9,4.72.92,7.08c.1,12.16,0,24.32,0,36.48,0,12.33.29,24.66-.08,37-.37,12.06,1.34,24,1.13,36.07-.2,11.49,0,23,0,34.48h-2v-6.9h-5.18l-2.84-2.62c-.32-2.24-.75-4.43-.9-6.64s0-4.55,0-6.63l-6.34-1.41c-1.22-1.13-3.08-2.06-3.5-3.43-.57-1.86-3-1.3-3.12-3.15-.11-2.7.09-5.4-1-8.08-.78-2-1.91-2.4-3.17-2.11l-8,8.83-1.17,7.82,5.13,2.4v4.73c-2,1.11-4,2.09-5.83,3.21a12.52,12.52,0,0,1-7.68,2c-2-.15-4,0-5.82,0l-3,3c-1.62,0-3.15.33-4.48-1.26a11.72,11.72,0,0,0-3.86-2.66,24.68,24.68,0,0,0-11.24-3c-3.5,0-7-.32-10.48.13-2.15.28-4.18,1.44-6.08.64l-4.82-5.95h-4.49l-4.17-7.08a23.34,23.34,0,0,0,1-3.5,30,30,0,0,0,0-4.07h-4.28l-4.72,3-6-6c-.57-3.87,2.54-6,5-8.58.51-2.45-1.17-3.53-2.9-4.52a8.92,8.92,0,0,1-4.46-5h-4.22l-2.43-2.74,1.28-6.11h-3.84c-2,4.47-2,4.55-5.23,6.16a21.59,21.59,0,0,0-8,6.24c-.62,3.08-.62,3.08-4.05,3.4-.65-1.27-1.39-2.64-2.06-4-.33-.69-.32-1.71-.83-2.12-1.94-1.59-2.9-3.81-3.79-6-1.24-3-3.58-4.2-6.24-4.87-1.42.83-2.68,1.46-3.82,2.27-.8.57-2,1.33-2.05,2.11-.49,4.15-4.48,6.89-4.33,11.23-1.63,1.88-1,3.66-.28,5.81s1.29,3.77,3.49,4.71a11.85,11.85,0,0,1,2.78,2.32v3.23l-1.12-1-1.7,4.77a35.8,35.8,0,0,1-2.1-3.86c-.93-2.6-1.91-3.29-5.22-3.15l1.21,6c-2.31,2.38-2.31,2.38-4.57,2.45-1.86-1.14-2.65-3.47-5-3.87-1.82,2.9,2.77,4.1,1.37,6.78-2.9,2.2-2.9,2.2-6.85,2.27l-7.77-7.77-6.87-1.47-3.06-9.22-7.07,6.73h-7.27v3.4l-3.37,3.37h-5l-2.11,2c-1.93.16-3.22-.45-3.64-3.18l5.21-5.21-1.24-4.12,4.12-2.75v-2.82c-4.43.4-8.82-.73-12.8,1.19a2.89,2.89,0,0,1-2.06-3.62,9.21,9.21,0,0,1,6.4-1.48c5.65-4.65,8.14-4,12.68,2.57,1.48.43,2.8.91,4.17,1.18,1.11.22,2.51.62,3.36.17,2.61-1.4,5.4-.61,8.16-1.06v-3.75a8.18,8.18,0,0,1-6-2.84l-11.83-13.09a7.48,7.48,0,0,0-3-7.66v-5.89l-2.24-2.42h-4.84c.41,3.51,0,6.53-2.57,9.08-2.38,2.32-4.83,4.17-8.47,3.8l-1.41,4.28-7.38,5-8.72-2.29-1.86,2.35,5.57,4.84-.12,2.53h-3.3l-6.45-4.93-2.54,1.23-1.49-1.49v-3.41l1.67-.57v-5.6l-3.65-.17a7,7,0,0,1-.16-1.51c.28-2.24-1.92-3.69-1.93-5.67a37.79,37.79,0,0,1,1.08-6.5H1073v3.37c-1.24,1.2-3.31,2.28-3.69,3.79-.53,2.09-2.46,1.74-3.43,3s-2.91,1.66-4.74,2.6l-1.62,6.69-.28-.45-1.75,2.91c-2.95-.85-5.77,2.85-8.52-.67-.38-4.39,2.66-7.92,4-11.9l-1.69-1.69h-3.59a33.24,33.24,0,0,0-2.9-1.84,4.77,4.77,0,0,1-2.78-4.6c.24-4.11-1-8-1.23-12.41-1.17-1.36-2.46-3-3.89-4.5s-3.25-3.19-5-4.84c-2.88,1.88-.73,6-4.25,7.52l-5.21-2.26-1.53,1.53c0,5.53,0,5.53-1.54,7.59h-9.09l-4.39,5.77v8.68l-2.45,2.36-5.14.46c1.69,2.68,4.11,4.48,3.42,7.68-1.33,0-2.63.34-3.59-.08-1.69-.74-3.78-.55-5.09-2.23s-1.46-1.79-4.05-2.72c-.41,2.67.53,5.61-1.68,8.05h-4.29c-.75,4.23,2,6.89,3.85,9.88-1.12,4.68-1.12,4.68.15,7.52L983.6,473a12.93,12.93,0,0,1-3.24.91,7.2,7.2,0,0,0-5.06,2.29,12.27,12.27,0,0,1-6.48,3.6c-1.67.36-2.28,1.74-3.24,2h-2.64l-5.25-5.82-1.81-4.17a10.71,10.71,0,0,0-9.78,6.3c-1.65,3.28-2.5,7-3.46,9.76l-3.6,3.61-4.31-4.43h-3.5c-.27,1.68-.22,3.32-2.27,3.89-3.83,1.06-7.57,2.56-11.68,2a3.28,3.28,0,0,0-.93.15l-1.77,1.77-4,.21c2,4.55,2.1,8.81-.86,12.77h-5.79l-3-2.37V498.4l-2-1.91-5.06,5.56-5.15,1.14-2.53-2.53V495.2c2.67-2,5.85-2.46,8.63-3.72,3.59-1.63,6.55,1.73,9.88.35a13.53,13.53,0,0,1,1.43-3.33c.8-1,2.9-.75,2.89-3.5a3.45,3.45,0,0,0-1.23-.69c-2.43-.55-4.9-1-7.57-1.51.13,2.88-2.17,3.55-3.7,4.06-4.34,1.47-8.45,4.64-13.83,2.59.66-.88,1.16-2.21,1.78-2.26,3.21-.29,5.05-3.14,7.89-4,2.25-.65,3.37-2.22,4.17-4.22h2c.41-1.58,2.2-2.81,1.16-4.88h-2.41l-2.68,4h-5.23a7.86,7.86,0,0,1-7.79,2.8l-1.69-1.47c.41-1.69.73-3.39,1.26-5,.18-.56,1-1.41,1.36-1.34,2.29.41,3.12-1.47,4.5-2.54s2.82-2,3.92-2.72V457l-8.56-10.92h-3.59c.09,3.24-4.39,4-3.87,7.53l-4.56,4.56H867.1v8.43l2.28,2.28,4.93.33-1.69,5.74c-2.47-.3-3.39-1-5.88-2.56-1.6-1-3.53-2.48-5.78-.88-3.08,3.24-1.6,7.31-2,11l1.93,1.93v3.21l-3.34,3.34h-2l-4.86-4.5-1.64,2.46c-.3,1.63.28,3.4.82,5.28s.11,3.86.11,5.45c-4,1.48-3.55-2.36-5.46-3.54H839.4l-2.95,2.95c-2.13-.59-4,2.12-6.33.57v-2l2.7-1.76v-4.62c-1.84-.59-3.62,0-3.67,1.5-.08,2.25-1.57,3.08-2.71,4.26h-4.49l-3.21-2.59c.43-1.72.89-3.38,1.23-5.06.08-.4-.21-.88-.33-1.29h-4.34l-3.06,3.91h-6.52l-1.16-2.19-9.87,3.37-2.59-2.34-5.38,1.39c-2.38-2.8-5.76-3.38-9.15-3.13-2.1-1.42-1.73-3.15-1.22-5.31l1.64-1.08c0-2,0-3.7,0-5.37s-.09-3.53-.14-5.32c-3.41.27-6.55-.61-9.14,1.05L767,471.86c-3.26,2.64-7.28,3.85-9.37,7h-3.49c-1.4-6.26-5.64-11.65-5.21-17.32l-3.13-4.41-1.91,2.39c1.43,3.19,1.57,3.28.1,5.46-1.68,2.49-3.63,4.81-5.37,7.08h-3L724,482.3a7.14,7.14,0,0,1-2.33,6.57h-4L712,483.46v-3.27L705.15,477V473l1.88-1.5v-4.48l6.2-4L710.66,457c-4.59.15-7.87,3-11.72,5.15h-4.86V466l-3.49,4h-6.39L682.43,467c-1.67.16-3.92-.68-4.45,2.38.82,1.2,2.57,2,2,4s2.53,2.4,2.09,4.69c-.26,1.37.63,3,.82,3.71l-4.14,4.86a16.37,16.37,0,0,1-4.09,1.25c-1.35,0-2.72-.6-4.08-.91a4.64,4.64,0,0,0-1,0h-9.14c-3.44,1.19-2,3.27-2.69,4.73-2.84,3.2-6.57,3.49-10.36,3.2L644,491.5c0-1.88-.11-3.88,0-5.86a11.89,11.89,0,0,0-1.75-6.78A17.49,17.49,0,0,1,640,468.3a5,5,0,0,0-.38-1.47h-4.48L633,463.24c0-2.26.42-4.9-1.51-7.3h-5.55l-1.35-3.86-4-4h-4.48l-2.79,3.09h-3.21c-.54,1.69-.74,3.34-1.56,4.58-1.06,1.61-.16,3.25-.62,4.76-1.08,3.59-1.38,7.58-5,10a9.67,9.67,0,0,0-1.38,1.35h-2.74L595.83,467h-8.15L585,464.58v-4.1l3-4.36v-9.7l-3.09-2.66-2,1.68v4.16l-13,10.9v6l-1.73,1.79L562,465.72v5.39l-4.16,1.31L549.58,482a7.34,7.34,0,0,0-5.95,2.84l-1.75,5.35h-6.73c-.84,2.65,3.08,5.4-.72,7.69l-4.62.37.5,1.71h2.08l-.48.52,3.42,2c-.52,2.12-1.62,4-1.17,5.41.62,1.91.84,3.71.08,4.91l-1.82,3.61L528,513.76v-5l2.25-3.2-4-1.91c-.15,4.75-3.22,8.56-2.2,12.92-2.12,1.81-4.08,2.75-6.52,2.41l-2.06-2c-1.94-.19-3.23.43-3.62,2.8l5,.3v5.14c-2.34.93-4.6,2.5-6.93,2.6-4.55.19-9.07.47-13.59,1.09a13.57,13.57,0,0,1-5.62-.79c-2.28-.66-4.9-.16-7.77-.16l-1.32-8.41L477,513.14h-4.52l-9.44,8.12c-.43,2.87,1.46,3.59,2.61,4.86h4.54l-1.45,6.7h-5.37c-1.91-1.2-1.47-4.72-5.15-3.59l-2.87,2.86-7.31-1.5L447,529.51v-3l1.94-2.08-1.12-6.78,1.59-1.59h9.18c2.22-.56,3.16-3.16,5.78-3.24,1.42,0,2.06-1.87,1.41-3.65-2.93-1-6.05-1.83-8-5.44l1.08-8.56L455,492v-4.77l-3.58-2.14a20.53,20.53,0,0,1-3.54.9,38.71,38.71,0,0,0-7.62.91,20.5,20.5,0,0,0-9.47,4.92c-1.62,1.55-3.55,2.9-4.27,5.21H424c-3.44-1.27-2.93-6.52-7.19-6-4.24-2.59-5.85-7.53-9.82-10.2l-12.35,8.61,1.31,3.71c-1.78,4.35-7,3.71-9.6,6.84-.41.49-1.9.07-2.86.07l-5,5h-4.57l-1.27-1.93h-9.5L360.48,507c-.83,0-1.28.14-1.48,0-2.54-2-5-4-7.59-6H337.09l-4.28-4.73-6.52,1c-.92,1-2.87,1.87-2.19,4.5-1.7,1.26-3.53,2.55-5.29,3.94s-2.9-.75-4.47-.76a53.86,53.86,0,0,1-6-.63L305.82,509h-3.51l-3.07,3.91h-3.34l-1.2-3.38c-2.33-1.72-4.49-3.07-6.36-4.76s-3.49-3.73-5.27-5.68l-6.47-1.21-2,2h-3c-2.59-1.91-.42-5.81-4.11-7.06-2,3-4.62,5.57-5.76,9.33-6-.7-11.77.45-17.61,1.14l-1,1,.82,6.46-2.43,3.18h-3.55L230.9,507l-2.23-.24-.88-1.66h-3.32l-4.67,4.53v3.2H217.3l-.76-2.15-6.13,1.15c-3.77-3.23-6.06-7.26-5.42-12.39l-1.35-1.35h-4.28L192.22,504H188.9l-1.35-2.06h-4.16l-1.95-1.94c-3.11.48-6.47-.83-9.53,1.06l-4-2.06c-1.43.55-1.9,2.48-3.79,2.11a1.82,1.82,0,0,0-1.52.94c-.52,2.27-2.78,4.44-.6,7,.1.11-.18.56-.32.94h-1.57l-2.61-10.05c-3.27.91-4,4.37-6.42,6.58L148.44,504l-4,1.17-4.31-5H137v4.68h-2.54L132,500.2c-1.73-.5-3.22.26-4.49-1.12-2.54-2.75-5.5-2.67-8-.91a14.63,14.63,0,0,1-7.09,6.68l-11.78-3L98,504.51c0,3-.25,6-2.53,8.56-3.87-.34-7.62.08-10.5,3.32l-8.3-3.6c-1.71,3.57-4.91,5.49-7,8H67.3l-1.62-5.73-3.32-.15,1-1.08L59,512.38c1.7-1.6,2.63-3.24,3.58-3.25,4.6-.05,3-3.84,3.77-6.33l-3.9,2.61-1.29-3c.12-.55-1-2.51.79-3.92-.75-2.16,1.57-3,1.84-3.7l-1-5.43c2.66-.51,4.9-1.1,6.76-3.79l-2.51-1,.48-.48-3.1-.15-2.29-2.16c-2.91,2.78-4.4,6.42-3,9.69.8,1.84.51,3.43.81,5.07-1.34,1-2,2.89-4.62,2.38L53,495.6v-1.33c-1.95-.67-2.84-2.56-4.21-4-1.6-1.66-3.26-3.27-5-5l1.33-5.5-2.6-2.8-2.54.14v3.57L35.12,484H30.91l-1.29,4.67c-2,3.06-4.2,6.52-7.65,8.62v4.2L20.51,503H13.38L5.6,508.15H3.26L2.62,510H1V276.09a13.73,13.73,0,0,1,5.87.73c1.72.7,3.8,2.18,6.2.3a6.54,6.54,0,0,1,5.42-1c2.49,1,5,.52,7.36,1v5.06l-3.46,2.92,2,2.19,10.2-5.49c.58-1.1,1.4-3,2.48-4.64.75-1.17,1.8-2.95,2.8-3,2.76-.15,3.12-1.66,3.38-3.79.08-.6,1.06-1.08,1.93-1.91l2.87,4v4L50.5,279h3l1.59,1.59v7.82L59.27,294h3.24l-.41.41,2,1c-.56,2.45-1,4.43-1.47,6.41s-3.41,3.13-2.49,6l6.18,2.46L70.25,305h4.26L77,307.49q0,6.5,0,13c-.92,3.72-5.71,4.86-6,8.62L77.92,334c0,5.24,5.29,5,7.06,8.63a11.52,11.52,0,0,0,3-9.33l-3.15-7.77,3.43-4.41H91.7l2.57,8.92-3.61,4c1.9,3,1.8,5.78-.52,8.41-.4.46-.13,1.52-.17,2.43h3l4.37-5.77L96.12,332l6-5.56-1.35-5.75c1-1,1.67-2.24,2.64-2.53,2.58-.76,4.35-2.54,6.29-4.17.16-.14.61.07,1.1.14v4l-5.71,2.37c-.35,1.59-.38,3.31,1.15,4.22l7.25-1,10.95-8,.82-7.49,1.25-1.25h4.41v-3.2l6.51-7.94,5.48,1.38,1.51-7.33,2.69-1.13,2.76,3.67,4.68-5.2h3.5v4l6.52,6.52c1.57.81,3.14-.24,4.81.94,1.42,1,3.47.55,4.81-1.71l-1-6.82h2.44l1.42,1.42v3l2.17,3.27h5.58l2.68-3,.33.5,4.28-2.43c.47,0,1.3,0,2.13,0,.14,0,.28.12.79.35.24.58.64,1.42.93,2.29.86,2.53,2.13,3,4.23,1.63,3.22-2.16,4.19-1.7,4.85,2.4,1.8,1,2.51,4,5.32,3.3.71-1,1.33-2.68,2-2.69,2.54,0,3.62-2,5.17-3.27h5.66l5.7,3c2.65-.06,5.41.09,7.91-.08v-3.12l-5.2,1.33-1.47-1.59v-3.38L233.5,287l-3.42-3.43c-.17-2.09-.37-3.8,1.86-4.66h2.65c2.2-2.25,4.79-4.14,4.44-7.84,2.66.07,5-.4,6.69-2.31s3.35-3.85,5-5.8c3.22,1.66,6.44,1.43,9.94-.19l1.54,3.07-2.07,2.07v4l2.51.12,3.43-4.75v-6.15h2.31l7.07,5.64H279c-.69-4,3.05-4.21,4.87-6.19v-3.48l-8-5.41.26-3.4c3.38-1.38,3.88,2.18,6.09,2.85,1.42.43,2.4,2.34,4,4.07l4.66,1.19,3.56,3.56c3.58-.1,8.52-3.05,8.52-5.62l-1.9-.93.42-.43h-6.06c-1-1.35-3.06-2.15-2.4-4.59l2.7-2.52h4.45l7.07-7.12L304,235.5c0-1.21,0-2,0-2.87l1.77-2c.8-2.58-1.22-3.07-1.69-4.17V222c2.39-1,4.69-2.34,5.52-5.64l3.48,2v3.59c1.72,1.28,3.54,2.6,5.31,4a5.85,5.85,0,0,1,.89,1.42l-3.21,2.31c-.18,1.68-.49,3.67,2,4.43,5.7-6,5.7-6,8.68-5.66,1.38,3.52-2.5,3.1-3.69,5.06l-.27,3.39-3.73,2.35c-.38,2.09.18,3.4,2.27,3.82,1.31-1,2.28-3,4.5-1.69l.33,4.45h5.69v-4.24l-1.73-.78,1.23-6.75h2.26a17.5,17.5,0,0,1,2.33,2.84,10.39,10.39,0,0,0,5.18,4.75,21.8,21.8,0,0,0,4.9,1.53c1.71.31,3.16,1.92,4.8,2.81.49.27,1.25,0,2,0v-2.73L344,235.68c0-2.24-.46-4.27,2.56-4.75l4.06,5.21,3.69-.55-6.39-9.51.37-4.54,4.06,2.31c.67.38,1.38,1.15,2,1.09,1.95-.19,3.27,1,4.82,1.74,3.76,1.74,7.58,3.19,11.8,2,.37-3-1.62-4.1-4.12-5.12a22.25,22.25,0,0,1,.71-3.56,6,6,0,0,0-.06-4.1c-.68-2.23-1.67-4.45-1.51-6.88.39-.33.75-.88,1.18-1a17.82,17.82,0,0,1,2.82,0l3.78-1v3.74l7.06,4.57.47,4.42,5.68-3.12V214l-3.09-2.58v-4L381,204.51V199a2.46,2.46,0,0,1,3,2v2.6l2-1.6h4.82c.15,1.47.19,2.61.41,3.7s.69,2.4,1.28,4.39l3.92,2.88h4.49l2.45-3.05c1,.09,1.62.13,2.26.22.13,0,.24.22.36.34-.57,3.92-1.81,5.84-7.39,11.42-8.4.2-8.4.2-11.47,2.47,0,.78,0,1.57,0,1.45l2,2.78,7.63,1.2c.28-.34,1-.88,1.25-1.58.64-2.09,2.32-2.92,4.06-3.74a4.16,4.16,0,0,1,4.49.31c1,.66,2.83.12,4.32.12,3.25-6,8.83-9.39,14.15-13.25v-2.85L429.8,205c4.13-.42,7.5,1.79,11,3.35.95,2.06-.7,3-1.79,4.15V216l2.92,2.44.24,4.51c4,.77,6.71-3.23,10-2l2.91-2.42v-3.15l.83.75.64-2.65,1,.06,1,2.36c1.19,1.38-.21,3.37,1.13,5.27A14.18,14.18,0,0,1,462,231.55c2,1.86,4,2.85,6.43,2.39l2.71-2.19c1.88,2.18,3.19,4.79,5.29,5.92,4,2.13,6.93,5.24,10,8.18h5.49c.61-1,1.17-1.94,1.75-2.84,0-.08.32,0,.91,0l2.27,3,2.06-.1V242.4c-2.95-1.48-7.55-6-9.54-9.66v-7.33l2.86,2.09v3.56l5.56-.3L495.1,226l1.26-6.83h3.12l3.65,3.16c2.71-3.21,2.48-4.2-.75-5.33a15.84,15.84,0,0,1-2.81-1.73c2.66-2.53,2.59-6.27,5.86-8L503,202.63,507.8,193l1,.19v6.17l4.15,5.51c.46,2.71-2.11,5.16-.67,7.95,2.29,3.2,4.76-1.2,8.2,1.18a10.53,10.53,0,0,1,3.58,8.32l4.89,1c0,2.1,0,4.24,0,6.39s0,4.2,0,6.6c2.18-.43,2.79-2,4-2.78a6,6,0,0,1,2-.41c.17,2.43-3.79,3.3-1.47,5.88h4.85c3.49,2.56,4.73,7.15,9,9.2a22.94,22.94,0,0,1,1.62-2.28,11,11,0,0,1,1.93-1.29v8c3.55,2.21,4.15,5.81,4.45,9.63l6.06-3.57,2.92,4.36h5.35l2.83,4.22L579,265.7c-.4-3.22-.4-3.22-4.4-4.08l-4.53-4.55-3.25-.28c1.45-2.53,1.45-2.53,4-3.09l1.89-1.89c1.19-5.41-.5-10.5-.76-15.86l4.11.27c0,1,0,1.68,0,2.33,0,.12.22.24.34.35,3.1.39,6.07.17,8-1.61l6.22.94,6.21-7.58V227H593.1c-1.1-3.47-5.68-1.71-7.33-5.25,2.21-4,2.68-8.92,5.5-12.76h8.19l2.55,2.47v3.11l4.12,5.43v5.7l1.93,1.78a13,13,0,0,1-3.36,7.61l1.7,3.81h2.22l.69.63,6.25-6.43,1.59,2.13-2.2,4c.06.41,0,1,.24,1.33a10.91,10.91,0,0,0,1.53,1.47l5.41-5.51.51.68,6.69-2.48,3.77,6.09v5.23l4.33,3.89,1.64,4.19,7-1.23,3.17,2.65v6.9a11.07,11.07,0,0,0,2.58-1.88,25.4,25.4,0,0,0,1.23-3,2.82,2.82,0,0,1,3.24-1.63c3.8,3.53,3.8,3.53,3.53,8.85L654,269.35c-.26,3.14,2.31,4.38,3.39,6.44.2.37,1.47.17,2.46.26,2.08-2.57,4.11-5.1,6.19-7.59.27-.32.82-.39,1-.47L670,270.4c.15,2.17,0,3.83,1,5.56a12.19,12.19,0,0,1,1.1,7,28.6,28.6,0,0,0,0,2.87l1.1,2.92-2.31,5c1.14,2.72,3,2.31,5.11,2.12.32-.7,1.08-1.57,1-2.38a5.09,5.09,0,0,1,1.57-4.31,28.67,28.67,0,0,0,7-8.09c.1-.16.62-.07,1.17-.11l2.46,3.73-1.19,8.69,3.77,3.77h3l1.41,1.41v7.12l1.9,1.47c.52-.36.93-.48,1-.72a11.14,11.14,0,0,1,4.88-5.93c.57-.34.65-1.39,1.13-2,1.49-1.88,3.06-3.7,4.59-5.54,3.1.52,3.16-1.87,3.76-3.84a12.39,12.39,0,0,1,1.21-2.25c2.87.65,3,3.46,5,5.1l2.8-.21-1.4-4.53,8.3-6.93v-13.5h6.42L737,265.5c0-2.88,0-5.86,0-8.85s-2-5.51-.62-8.63h4l3.72-6.28v-3.37l6.19-4.68,4.7,2.83c-.11-1.46.17-2.67-.31-3.23-2.13-2.52-1.64-5.33-1.65-8.1,2-.5,3.81,0,3.83,1.53,0,2.4,1.56,2.79,3,3.75,2.24,1.46,4.29,3.2,6.89,5.17l.29-3.16c-3-1.84-3.86-5.16-5-8.23s-2.47-6.47-1.93-10c4.13-1.18,6.31,1.79,8.52,3.86l2.75-.32-2.61-7.06,2.7-2.7c2.85-.11,5.72-.28,7.22,3.2h4c2.87,2.44,2.25,5.49,2.32,8.27,2,2.16,4.07,3.74,7.15,3.58.61,0,1.27.9,1.86,1.35v3.09l.44-.43,1,2.11c2.68-1.2,2.68-1.2,6.51-.84l1.23,1.8-3.42,3.77,1.47,4.48c-3.14,1.64-1.72,5-3.81,7.85,4.41-.8,6.24-3.62,8.55-5.71.41-2.86.87-3.54,2.46-3.54l1.43,1.36.34,5.21,4.2-2.92L816,243v9.57c-2.19,1.92-3.38,4.26-2.94,7.14l-3,2.76v3l2.4,2.86c-.86,1.52-1.67,2.84-2.35,4.21-.17.35,0,.89.09,1.45l2,.11c2.81-.93,2.33-4.08,4.17-5.89h4.85l4.14-4.14,1.91.14-1.43,9.57-5.16,5.16c-.93.18-1.71.32-2.48.5-.08,0-.1.28-.15.42.36,2.07,2.76,3.57,1.59,6.5a9.77,9.77,0,0,1-2.93-1.23c-1.1-1-2.09-1.45-3.61-.68-.27,3.09-.18,6.26-.88,9.46-.76,3.47-.17,7.24-.17,10.8l4.67,3.23h4.46l3.19-3.62,11.51,1c.68-3.09,3.51-4.26,4.3-7.14.73-2.67,2.38-5.1,1.94-7.64,2.86-2,3.36,1.91,5.81,1.42v-6.29c.71-.71,1.06-1.37,1.41-1.37,3.45,0,6.73,1.12,10.38,1.93l2.59-3.23h7.36l3.87-4.14c-1.07-.76-1.8-1.31-2.56-1.8-2.15-1.4-4-4.64-2.79-6.44,1.8-2.71.44-4.87-.34-7.56a35.81,35.81,0,0,1,2.85-4.08,53.84,53.84,0,0,1,4.43-3.93L874,249.21l2.5-3.4c2,.92,4,1.35,5.23,2.57,2.1,2.07,4.08,4.28,6.65,6.37l-1.88,5.74c-.48,3.57-.64,3.68.54,5.38a19,19,0,0,1,3.47,8.08c.06.41.62.75,1,1.23h13.33V281l-2.61,4.47,1.15,2.78a12.76,12.76,0,0,1,4.64-.86v8.65l7,4.8c.34.93-.79,2.91,1.34,3.92a13.39,13.39,0,0,1,9.46,4.57c1.12,5.64-2.71,9.23-3.83,13.48l-5.73.51a9.92,9.92,0,0,0,9,4.66c2.87-1.93,4.15-5.12,7.84-6.27-.25,2,.08,3.41-1,5-.89,1.31-.94,3.21-1.3,4.6,2.51,2.38,2.51,2.38,4.65,2.53,3.13-2.2,4.83-6,8.91-7.22l2.36,2.93,5.53,1.26,3.69-3.23v-7.16l-1.81-1.81v-4.25l2.29-2.29c1.37,0,2.73-.47,4.08.77.82.75,2.29.84,3.5,1.1.31.07.73-.36,1.46-.76L963,310.42v-3.3l6-3.85v-10l6-1.35,9.18,9v6c4.19.66,4.69,1.75,2.5,4.87a18.82,18.82,0,0,1-1.46,2.37,10.67,10.67,0,0,1-2.21,1.42v2.88l1.83.84v3.31l-2,2L977.09,326a53.32,53.32,0,0,0-4,4.48c-.37.52-.06,1.53-.06,2.41h3.56l9-7.44,2.86,6.52,7.81-1.23,2.18,2.18c.43,0,.91.06,1.4.07.63,0,1.27,0,1.67,0l2-2c4,0,4-.07,7.5-2.44a8.57,8.57,0,0,1,2.71-.68l1.61,2.79,11.09,1.43c1.9-2.14,4.36-4.07,6.77-2.94a7.4,7.4,0,0,0,6.63,0l3.84-4.39,6.61.92,5.77-2,2.95,2.73,2.69-2.41,8.66,1.33,2.39,3,5.15-1.51,1.57,2.39h4.16l2,2,3.88-.53c-2.43-4.21-7.71-6-7.49-11.29,2-.44,3.81-1.23,4-1.83.52-1.76-.78-2.67-1.73-3.79-.28-.33,0-1.1,0-1.62,2.35-.41,2.88,3.43,5.84,1.4l5-5v-5.27l7.13-8H1110l4.92,4.93,2.08-.2v-2.62l-9-7.78.17-2,5.11-1.4-1.37-7.79,4.54-2.52c1.75,1,3.48,1.9,5.77.84-3.08-5.25.65-8.3,3.47-11.72,1.74.62,2.45,1.45,2.4,3-.07,2.19.65,4.57,2.83,5s3,1.68,4.1,2.72c.26,1.94-.69,3.95,1.59,5.38h4.14l3.38,6.49v4.48l2.89,1.35,3.41-2.75,6.17,3.79.91-2.22.65.48V286.8l3.6-1,5.23,5.24,2.06-.21V288l-1.5-1-2.63-11.27c2.68-2.87,5.57-4.87,6.31-8.11l6.29-3.81,6.86,8.25H1187c1.56,3.32,3.39,6.74,4.75,10.34.6,1.59.25,3.53.31,5-4.34,7.24-4.61,7.49-9.12,8.67l-3.65-2.41a14.81,14.81,0,0,1-2.34,1.91,12.87,12.87,0,0,1-2.69.75l.51.51-4.51,4.5c1.25,1.4,1.25,1.4,3.15,1.73,1.71-1,2.48-3.72,5.07-2.74,2.37,1.55,1.72,6.12,6,5.75,1.93-1.78,3.68-3.64,3.57-6.28l3.61-3.92c2.53,1.75,3.51-3.84,6.58-1.06a14.37,14.37,0,0,0-1.65,2.22,22.52,22.52,0,0,0-1,3.11l-6,3.4,1.47,3.38h4.59a49.55,49.55,0,0,1,5.47-4.33c1.93-1.14,1.54-4.48,4.82-4.55.58,4.31-3,6.16-5,8.79L1202,309l-4.68,6.49,4.79,2.19,1.39-3,5,1.27a8.12,8.12,0,0,0,3.59-7.19c1.24-2.5,3.23-1.34,4.83-2v-4.66l3.44-1.44-.39.89,2,.84-1.24,4.74c3.13-.32,5.72.16,8.26-.33V301.5a28.2,28.2,0,0,1,7.85-3.71v-3.46l-2.36-3.54-5,2.45c-5.48-2.5-10.37-5.49-13.82-10.64,3.62-1.79,6.58,1.34,9.9.22l3.42-3.41v-3.49c2.26-2.76,4.18-5.4,6.39-7.76,4.24-4.51,5.52-10.38,7.49-15.9.64-1.8.92-3.65,2.51-5.14h3.34c1.73,2.55,3.53,5.13,5.26,7.77,3,4.58,6.94,7.45,12.69,7.13a4.18,4.18,0,0,1,1.26.32c.36,2.45-2,2.26-3.16,3.53a7.75,7.75,0,0,0,1.07,2.4c.72.78,2,1.08,2.68,1.85a12.07,12.07,0,0,1,1.52,2.66c4.54,1,6.72-1.6,8.58-5.32l4.57,2.56,4.74-1.25v4.14c2.12,4.43,7.38,4.31,9.19,8.11-1.2,2.19-3.74,3-4.25,5.58,3.34,1.42,5.42-1.35,8.27-2l1.21-6.57h4.23l1.76,1.76h2.48l-1-5.71h3.83c1.81,2.18,4.46,2.39,7.4,3l-.16-3.27h-4.5l-3-3-1.38-6a12.48,12.48,0,0,0,1-1.46c1.37-2.6,2.89-5,3.44-8.11.75-4.23,1.5-4.68,4.81-8,.71-.71,1.39-1.44,2.14-2.1.2-.18.61-.12,1.23-.21l1.46,1.55v6.77l7.82,8.85c1.1-.33,2.42-.77,3.77-1.09.4-.09.89.18,1.48.33v4.22l2,2.2-1.29,4.6,4.68,4.68h5c1.67,1.5,1.67,1.5,3.46,1.94v13l-3.12,1c-3.27-1.56-3.89-1.38-6.87,2.08.66,3.28,4.76,2.24,6.09,4.69l-2.26,4.58c1.82,1.93,3.52,3.6,6.16,3.68ZM336.72,247l-4.7,4.36,2.36,2.82c-1.16,1.07-2.11,2.69-3.06,2.69-3.82,0-4.61,3.13-6.42,5l1.19,4.47c-1.73,2-4.53,2.19-5.06,4.56l3.07,3.69,3.91-2.71,8.76,1.32v-4.33h-3.2c-1.81-1-1.55-2.37-1.6-3.67a5.72,5.72,0,0,0-.48-1.41h-2.7c1.19-4.19,5.36-3,7.29-4.93,3.19,2.15,4.64,6,8.88,6.45v4.45l5.06,5.15c1.44.1,3.33-.27,4.65.43,2.9,1.53,5,.25,7.87-1.09a33.61,33.61,0,0,0-1.84-3c-1.45-1.87-3.76-3-4-5.88-.08-.89-1.52-2.29-3.34-2.47-1.45-.14-2.8-1.22-4-1.78L347.64,255H344.5c-2.07,1.86-2.07,1.86-5,1.45,2.17-3.45,2.09-6.69-1-9.45Zm11.93,56.85L354.4,305c2.49-1.84,1.2-3.9,1.45-4.85l-2.27-3.22c-4.52,1-4.52,1-6.78.17L340,303.9a5.77,5.77,0,0,0,0,1.78c.36,1.16.91,2.26,1.35,3.31h2.14Zm230.19-28.14c2.06.47,3.85,1,5.67,1.27,2,.33,4,.48,6.28.73l2.06-2.06v-6.3l-1.28-1.28H583.8l-3.64,2.46c-.22.89-.4,1.64-.59,2.4S579.11,274.69,578.84,275.71ZM140.15,477.1c-3.71,5.32-5.55,11.89-10.19,16.67l.13,2.1h3.71l11.31-15.1-1.39-3.67ZM414,274.5v-4.3l1.95-1.55V264.9l-4.21-1.15c-2,2.1-4.06,3.7-4.77,6.36a2.31,2.31,0,0,1-2.46,1.92c-.16,0-.34.48-.77,1.15l1.48,2.77h7.33Zm-46.22-18.43-2.85,5.22c1.44,2.75,4.76,1,6.63,3.18a17.92,17.92,0,0,1,1.82-3.27,13.62,13.62,0,0,1,2.62-1.84c-.67-3.73-1.65-4.3-8.36-4.43l-4-4c-1.28-.14-2.34.58-2.74,2.53l2.63,2.59ZM347.2,290.32,342,285.1h-1.86l-5.27,5.27,1,3.53H343Zm17.11,27.63c-2.42-3.1-5.79-3.65-8.24-5.11-2.18,1.65-4,3-5.73,4.36-.21.16-.22.56-.53,1.39l2.1.9c3.21.94,7-.36,10.89,1.65ZM1290.2,315h8.55l1.65,2,2.38-.11c.68-2.05-.52-3-1.38-4.14s-.15-3.3-2.23-3.35l-7.94.84C1289.66,311.45,1289.87,313.05,1290.2,315Zm-49.66-30.39c.79,1,1.37,2.29,2,2.29,3.25,0,5.82,3.64,9.77,1.52l.84-2.26-4.44-4.39ZM408.9,232.51c1.09,1.06,2.1,2.19,3.26,3.12,2.27,1.81,3.42,1.75,5.8-.1.43-3.44-1.26-5.75-3.91-7.74C411.83,228.68,409.15,228.72,408.9,232.51Zm-28.57,37.95L376.14,266h-2.74l.56.61-3.05,1.87c.16,3.72,2.89,3.69,5,4.73Zm911.86,27.23,7.62-1c1.39-2.28,1.39-2.28-.33-4.82l-7.6,1.39-1.12,3ZM149,458.94l-1.39-2.82h-3.7l-1.11,6.26c3.21,2.34,4.29,2.1,5.22-.81C148.29,460.7,148.65,459.85,149,458.94Zm182-95.23,3.59,4.36,2.41-.27v-3.3l-2.35-2.35h-3.57Zm189.17,53.38V422l3.66-.21v-4.74Z" transform="translate(0)"/><path class="cls-2" d="M1353,292V156h-8.23l-5.45-3.94h-5.86l-2,2h-3.42c.68,5.83-4.3,8-7,11.54l-.21,2.42h-2.26l-2.72-4.05V159.1h-2.81l-4.62,5c-4.46-.36-9,.87-13.14-1.12a12.42,12.42,0,0,0-5.62-.92c-2.47,0-4.94,0-7.63,0l-8,9.91c-.77-.16-2,.44-3.3-.55-1-.8-2.55-1-3.72-1.38v-5.21l-5.3-8.79-3.88.17v4.45l-2,2.21c.76,1.58,2.07,2.72.51,4.33-2-.58-2.88-2.49-4.32-3.56l-1.35-7.39-1.63-1.62v-2.34l2.73-2.19v-5.81c-2.87-1-3.49,1.07-4.32,2.76h-3l-3.84-3.84h-4.47l-5.25,6.85,1.27,2.32c-1.43,1.43-2.89,2.77-4.21,4.23-2.41,2.68-2.63,5.22-.75,8.16.35.55,1,.91,1.38,1.44a5.08,5.08,0,0,1,.51,1.28l-1.55,1.46H1224c-1.51-2.88-3-6.16-1.77-9.11,1.08-2.69.38-5,.88-7.56l-5.06-2.82c-.31-3.27,1.28-5.54,3.54-7.33,1.68-.42,3.1.32,3.34,1.54.31,1.56,1.57,2,2.33,3,.22.3.85.3,1.49.49l.55-3.16,5.66-4.39v-2.44h-3.43c-1.45.73-2,2.92-4.37,2.84v-4.08l-2.58-2.93h-3.16l-2.33-3.26c-2.06,1.24-2.85,3.93-5.41,3.31L1210,129.5v-3L1208.5,125a36.11,36.11,0,0,1-4.42,0c-3.42-.42-6,1.05-8,3.52-1.55,1.83-3,3.75-4.37,5.47h-5.2l-1.59-1.59c1.06-6.1-1.37-12.09-.86-18.67-1.69.37-3.22.27-4.05,1-1.95,1.66-4.21,2-6.88,2.46l-5.82,6.08-9.25-1.56v-4.17l.62.62,3.6-4c.67.28,1.53.62,2.38,1s1.67.77,2.29,1.06a3.29,3.29,0,0,0,2.19-3.27,7.94,7.94,0,0,1,1-2.76l-3.32-3.79c-6.41-1-9.5-4.9-11.86-9.68,1.93-2.17,5.66-2.39,5.14-6.14-2-.4-2.17-2.31-2.89-3.47a8.48,8.48,0,0,0,.84-2.78,17.26,17.26,0,0,0-3.39-9.13l-3.53-.38V71.94l3.45-5.47L1146.53,59h-4.16c-1.64,2-3.32,4-4.89,6a19.3,19.3,0,0,0-1.46,2.77v3.88l2.44,3.29h3.1l2,2.42-5.27,3-1.48,3,5,3.92v4.36l-1.55,1.37L1135,90.95V86.34l-5.53-5.53-.72,2.15c-.71.07-.71.72-.71,1.37,0,6.43,1.44,9.14,6.85,13.1.61.45.84,1.43,1.43,2.48h-5.56l-6.87-5.62c.48-2.72,3-5.67-1.56-7.63l-1.81,4.26-1.37.35-.25,2.38c-5.2,5.2-9.93,7.51-13.87,6.82l2-12-2.63-2.43c-1-.06-2-.11-3-.19-.13,0-.24-.22-.35-.34.51-3.16,2.56-6.07,1.77-9.65-2.28.33-3.13,2.12-4.41,3.28-3.9,3.57-6.54,4.27-11.5,4.84-1.88.22-3.74-.24-5.66.87-1.23.72-3.22.13-4.31.13l-2.71-2.25c-1.28-4.81,3.83-2.83,4.76-5.27v-3l-1.87-2c.73-2.62,1.42-4.68,1.87-6.79s2.58-4.48-.58-6.72h-5.1c-2.57-3-.61-6.49-1.47-9.7L1069,46.49l-1.38-8.4h-1.66l-8.17,10.18v7c-2.9-2.88-5.06-5.06-7.13-7.12H1048v8.33l-2.12,2.12v5.12l-4.34,4.35c-2.08-2.11-4.32-4.94-7.24-4.16l-3.38,2.54c.37,4.24-1,7.73-3,11-.68,1.17-1.81,2-4,1.32-1.48-2.35-3.36-5.05-5-7.92-2.67-4.81-6.46-8-11.47-9.14L999.34,55h-2.87c-2.15,2.15-4.36,4.2-6.36,6.43a8.16,8.16,0,0,0-2,3.62c-.57,3-.66,6.06-1.11,9.06A23.71,23.71,0,0,1,985.72,78h-3c-1.7-1.26-3.18-2.48-4.8-3.51-.62-.39-1.68-.11-2.26-.52-2.48-1.8-4.86-3.74-7.52-5.82h-2.09v4.37l-3.74,3.68c-1.08,4.17-2.93,7.77-2.45,11.49-2.25.5-4.12.82-5.93,1.34a23.59,23.59,0,0,0-10.51,7c-.87,1-1.72,2.41-2.84,2.74-3.33,1-5.27,3.59-7.65,5.73a35,35,0,0,1-3.78,2.62L926,105.53c.2-3.32-.55-6.76,1-10,1.78-3.71.71-7.59,1.13-12.07l-6.42,3.76L920,85.5c-.08-4.58.71-9.44-3.8-12.6-1.56.53-2.85,2.11-4.61-.1l4.64-3.92L914,64c-.29-4.86.81-10-1.23-14.51l-3.93-4.14-4.66-1.42V52l-6.34,8V64l-4.91-1.45L891,60.21h-3.1l1.3,7-6.71,8-2.8-1.4L878,75.46V86.41c-1.87,2.74-4.49,1-6.68,1.73-2.52,2.86-5.23,5.7-7.63,8.77-.9,1.15-2,2.49-1.73,4.27a30.6,30.6,0,0,1,0,3.61l-3.28,1.93-5.19-.74c-3.42,1-2.16,3.74-3.92,5.14a5,5,0,0,0-1.61,5,56.54,56.54,0,0,1-4.18,5.49c-1.79,1.85-4.45,1.3-6.79,1.48l-2.48,4.85-3.72.2-1.15,7.66c-2.25,1.75-2.26,1.76-4.84-.41v-2.11c-2.76-2.31-4.63-5.34-7.84-6.87.37-2.21.37-2.21,3-4.34,3.31-.7,2.6,3.37,4.68,3.91,1.64.3,3.24-.4,3.22-1.63,0-2.06,1.39-2.83,2.34-4.1a9.6,9.6,0,0,0,1-2.39L825,111.65c0-2.94.06-5.76,0-8.59-.07-2.64.32-5.33-.35-8.38L820.54,99H813l-1.46-2-5.91,1.18c-3-2.63-2.41-6-4.1-9.37l9.29.91,4.24-4.24-.46-4.13-3.95,3.42L803.51,86,802,84.54v-2c2.37-2.94,6-4.94,7-8.91-1.77-4.35-1.77-4.35-4.73-5.92l-1.93-6.19-4.76,3.85c-.86-2.88-.86-2.88-3.14-4.66A59.11,59.11,0,0,1,790,66.23c-1.43,1.38-.54,3.11-1.17,4.49l-4.71,4.71v2.17l-2.88,2.32V86l4.7,2.09v2.82l-2.12,2.9a68.15,68.15,0,0,1-7.46-.06c-2.22-.26-3.19-2.51-5.19-4.69v8.79H765L759.27,93h-3.19c-1.43,1.87-3.45,3.72-4.45,6a18.43,18.43,0,0,0-1.56,10l-3.49,3-1.69,4.46c-4.13,2.84-7.85,1.26-11.4.52l-3.76,5h-3.26l-3.83-3.83h-2.14l-2.39,9.74,4.84,5.91a4.19,4.19,0,0,1-1.53,4.41c-.52.44-.34,1.69-.53,2.81h3.86l1.42,2.46-3.54,1.67-4-4-2.21-.22L712,136.5c0-1,0-2,0-3.12l-2.27-1.67L701.84,141c2.92,3.19,1.35,7.76,3.16,11.46L701,156.45v3.37l2.91,2.34v4.37l-1.28,1.29h-3.76l-3.53-8.93a54.08,54.08,0,0,1-4.33-4.42,29.26,29.26,0,0,1-2.46-4.36c-1.73-.47-3.08.07-3.55,1.72a25.63,25.63,0,0,0-1,5.57c-.16,2.79,0,5.59,0,8.53l-10,7.36v6.07c1.26,1.81,2.58,3.41,1.53,5.91-6.13-2.55-9.24-8.09-13.27-12.51l-4.38,1.34v-7c-4.42.15-4.82-4.7-8.36-6.41l-3.27,2.27h-2.91c-1.35-2.39-2.29-5-4-6.89s-4.3-3-6-4.18l1-12.61c3-3.5,3.94-6.76,3.2-11.61-4.41,1.86-8.37,4.78-13.47,5.47,0-5.66-.11-11,0-16.26a10.59,10.59,0,0,0-2.07-6.6c.11-2.83.28-5.6-2-7.74q0-2.5,0-5l-.6.58-.82-2.17c-2.5.52-4,3-6.65,1.73V92.2c-3.48-.83-6.31.78-9.41,1.86l-1.9-2.19,3.22-2.64v-9a2.41,2.41,0,0,0-.59-.24c-.5,0-1,0-1.5,0-2.43,2.26-2.43,2.26-2.73,3.78l-5.28,5.3-1.56-1.4a19.45,19.45,0,0,1,1.29-9.79c.95-2.75,2.2-5.64,1.23-9.1L590.2,70l-7.31-3.22V62.39L579.52,59h-3L573,62.6v.7l-1.47,2.92c-2.49-1.36-4.56-2.16-6.49.25-.24,4.4.64,9-1.46,13.42h-2.31l-2.64-4c-3,0-4.87,1.64-6.63,3.59v4l-.71-.68-1.83,3.51-3.89-1.4L544,86.5c0,.63-.29,1.58,0,1.91,2.42,2.36,1.85,5.34,2,8.22.07,1.55.42,3.08.64,4.61l-1.13,5.13L539.26,101h-1.77l-5,5c-3.76-.45-6.94.44-8.46,5.15v5.06l7.94,9.42v9.91a15.65,15.65,0,0,1-2.13,1.08,14.72,14.72,0,0,1-2.24.41L524,133.48c-2.38-.84-4.32-1.41-6.16-2.2s-2.79-.09-3.8,1.22v5.88l6.23,7.51,3.77.29v6.45l6,5.88c0,1.21,0,2.37,0,3.54,0,.16,0,.32,0,.48,2.51,4.2,2.53,4.34,1,9.27-.28.88-.93,1.77-.87,2.61.33,3.93-1.93,6.12-4.94,7.9a2.89,2.89,0,0,0-.61.67h-3.37l-7.67-5c-3.37.32-6.85-.7-10.13,1.07-3.41-5.49-9.09-9.14-11.64-15.23H485c1.28-4.39,2-8.51-2.08-12.29l-6.5,3.67-6.72-3.3h-4.56L463.57,150c-4.28-.21-4.82-.51-7.57-4.15a2.85,2.85,0,0,1,3.5-1.86c4.47-4.47,4.47-4.47,4-8.13h-5.57a7.32,7.32,0,0,1,.27-2.5,13.68,13.68,0,0,1,2.46-3.47c1.92-1.83,1.24-3.41.46-5.6-1.23-3.44-4.08-5.33-5.28-6.84l-3.68-9.35H448c-2,5.14-6.33,8.69-10.23,12.67,3.34,4-1.09,7.87.05,10.81l-3.32,9.93-1.83,2.5c-2.4,0-4.4,0-6.4,0s-4.22-.28-6.43.3v13.35l-6.57,1.54-1.36,3.44,3.42,7-7.12,1.68-2.1,2.1c-.08,4.51-.08,4.51-1.54,6.59h-12.4v15.47L387,202h-1c-.09-1.5-1.24-.85-2-1a2.46,2.46,0,0,0-3-2,5,5,0,0,0-5.21-1.95c-1,2-2.35,3.63-2.55,5.35-.27,2.27-1.17,3.51-3.24,4V208a17.82,17.82,0,0,0-2.82,0c-.43.07-.79.62-1.18,1-1.86.33-3.72.8-5.6,1s-4,0-5.9,0L353,208.51v-4.39l5.1-11.7v-4.59l2.42-3.68-3.42-.21-3.46,4.21c-2.21-.69-3,.78-4.24,1.94-2.72-1.11-5.47,2-8.9.26l7.58-5.56c-.08-5.41-5.38-4.19-7-6.82L338,179.23c-.23-5,.65-9.62-1.69-14.48l-8.13-1.05c-1.33,2.69-2.34,5.12-2.3,8l-6.12,4.76v5.58h-4.68v3.56c1.39,1.39,2.84,2.76,4.2,4.23s3,2.52,4,4.71l-4.42,3.63v4.45l-3.2,4.26-2.51.27-3.05,4.29-4.08-3.63c-3.55,1.89-3.37,5.43-4.5,8.15h-2.12c-.26-.26-.6-.46-.72-.74-1.83-4.42-5.55-5.26-9.76-5.23-1.83,0-3.67,0-5.1,0l-5.42,4a36,36,0,0,0-4.31,0,35.51,35.51,0,0,0-4.14,1v-4l-2.19-2.73-8.75,1L256.53,212h-4.25l-10.79-9a33.6,33.6,0,0,0-3.88,1,27.35,27.35,0,0,0-3.14,1.67l-11.22,2.11c-.86-.79-1.86-2.71-4-1.52l-3.49,4.63h-6.31L205,206.46a6.66,6.66,0,0,0-1.66-5.64c-1.35-1.56-2.78-3.05-4.5-4.92l-4.38,1-4.5-5.64a13.67,13.67,0,0,1-7.78-4.6A8.17,8.17,0,0,1,185,178.5c0-1.35,0-2.68,0-4-.95-.94-1.93-1.85-2.82-2.84s-1.67-2-2.24-2.74h-5c-2.87-1-1.39-3.4-2.22-4.89-2.36-.23-2.39,1.84-3.31,3h-3.94c-5.72,5.72-7.93,6.7-11.61,5,3.34-3.81,6.52-7.71,10-11.32a12.12,12.12,0,0,0,3.2-7.14l-3.12-2v-3.67l-9.61-7.19-4.18,2.68v-4.34l-3.05-4.5-.33-5.89c-2.39.83-3.34,2.68-4.54,3.6-.86,3.1-1.07,6.06-4.32,8H134v4.18L129.58,149c-1.4-.51-2-3-4.48-3-.77,4.15,2.2,8,.39,12.23l-4-1.22.6.65-2.5.89c.91,2.05,3.74,3,1.85,5.58l-7.25-1.27-1.56,2.1h-5c-3.32-1.82-.76-7.42-5.45-8.11-3.69,2-6.27,5.89-11.11,5v-3.48l3-3v-4.28L96,149.62v-3.17A27.64,27.64,0,0,1,90.9,140c-2.27-4.23-5.23-8.06-9.95-10.07-3.27,1.75-6.92,3.36-8.7,6.54a42.62,42.62,0,0,1-6.93,8.7c-.39,1.56-.65,2.79-1,4a11.52,11.52,0,0,0,1.25,9.67c2.14,3.16,1.95,6.71,3.66,10.1l-9.54-1.74-1.9,1.3c1.41,3.14,2.84,5.75,6.11,6.86v3.77l-2.26,2.82H58.43l-8-8c-.66.09-1.44.19-2.22.33-.1,0-.16.25-.07.1l2.5,10.13,3.09,2.75V192H43.51c-3.92-2.5-3.92-2.5-5.51-8.1-.56-2-2.13-2.25-5.34-.77-1.66-2.25-4.12-.89-6.33-1.08s-4.63,0-6.95,0l.54-.66-2.8-1L21,176.46l-.12-2.06c-.26-.2-.39-.38-.52-.38-1.32,0-2.65,0-3.87,0-4.16-2.58-4.16-2.58-4.45-5.76L20.81,161c.39,0,1.4.28,1.66,0,1.69-2.1,4-3,6.38-4a15.85,15.85,0,0,0,3.21-2.38l-.17-2.66H23.52L22,148.08l-3.92-.18-.16-3.39L12.74,138H8.1v-7.19c-.86-1-1.84-1.71-2-2.56-.9-3.95-2.59-7.68-3.11-11.74A7.94,7.94,0,0,0,1.59,114l-.59.29V269.71c0,1.5.05,3,0,4.5,0,.28-.62.53-1,.8Q0,137.5,0,0H1354V308h-1Z" transform="translate(0)"/><path class="cls-3" d="M1,510H2.62l.63-1.85H5.6L13.38,503h7.12L22,501.54v-4.2c3.45-2.1,5.63-5.56,7.65-8.62L30.91,484h4.21l4.82-3.37V477.1l2.54-.14,2.6,2.8-1.33,5.5c1.76,1.75,3.42,3.36,5,5,1.37,1.42,2.26,3.31,4.21,4v1.33l2.4,3.29c2.59.51,3.29-1.35,4.62-2.38-.3-1.63,0-3.22-.81-5.07-1.42-3.27.06-6.91,3-9.69l2.29,2.16,3.1.15-.48.48,2.51,1c-1.86,2.69-4.1,3.29-6.76,3.79l1,5.43c-.28.68-2.59,1.53-1.84,3.7-1.82,1.41-.67,3.37-.79,3.92l1.29,3,3.9-2.61c-.79,2.49.83,6.28-3.77,6.33-.95,0-1.88,1.65-3.58,3.25l4.31,1.47-1,1.08,3.32.15,1.62,5.73h2.4c2.08-2.53,5.28-4.46,7-8l8.3,3.6c2.89-3.24,6.63-3.66,10.5-3.32,2.29-2.54,2.57-5.53,2.53-8.56l2.58-2.64,11.78,3a14.63,14.63,0,0,0,7.09-6.68c2.5-1.77,5.46-1.84,8,.91,1.28,1.38,2.76.62,4.49,1.13l2.43,4.66H137v-4.68h3.22l4.31,5,4-1.17,2.61,2.41c2.38-2.21,3.16-5.67,6.42-6.58l2.61,10.05h1.57c.14-.38.42-.82.32-.94-2.18-2.52.08-4.69.6-7a1.82,1.82,0,0,1,1.52-.94c1.89.37,2.37-1.57,3.79-2.11l4,2.06c3.06-1.89,6.42-.59,9.53-1.06l1.95,1.94h4.16L188.9,504h3.31l7.14-5.82h4.28l1.35,1.35c-.64,5.13,1.65,9.17,5.42,12.39l6.13-1.15.76,2.15h2.51v-3.2l4.67-4.53h3.32l.88,1.66,2.23.24,7.2,6.87h3.55l2.43-3.18-.82-6.46,1-1c5.84-.69,11.59-1.83,17.61-1.14,1.14-3.76,3.74-6.3,5.76-9.33,3.69,1.25,1.52,5.15,4.11,7.06h3l2-2,6.47,1.21c1.78,1.95,3.38,4,5.27,5.68s4,3,6.36,4.76l1.2,3.38h3.34l3.07-3.91h3.51l2.57-4.68a53.86,53.86,0,0,0,6,.63c1.56,0,2.68,2.16,4.47.76s3.59-2.67,5.29-3.94c-.69-2.63,1.27-3.47,2.19-4.5l6.52-1,4.28,4.73H351.4c2.56,2,5.06,4,7.59,6,.21.16.65,0,1.48,0l2.68-3.94h9.5l1.27,1.93h4.57l5-5c1,0,2.45.42,2.86-.07,2.63-3.13,7.82-2.49,9.6-6.84l-1.31-3.71L407,480.78c4,2.68,5.59,7.62,9.82,10.2,4.25-.5,3.75,4.75,7.19,6h2.5c.72-2.31,2.65-3.65,4.27-5.21a20.5,20.5,0,0,1,9.47-4.92,38.71,38.71,0,0,1,7.62-.91,20.53,20.53,0,0,0,3.54-.9l3.58,2.14V492l3.91,3.23-1.08,8.56c1.93,3.61,5.05,4.46,8,5.44.65,1.78,0,3.61-1.41,3.65-2.62.08-3.56,2.68-5.78,3.24h-9.18l-1.59,1.59,1.12,6.78L447,526.54v3l1.09,1.09,7.31,1.5,2.87-2.86c3.68-1.13,3.24,2.39,5.15,3.59h5.37l1.45-6.7h-4.54c-1.15-1.26-3-2-2.61-4.86l9.44-8.12H477l4.52,6.45,1.32,8.41c2.87,0,5.49-.51,7.77.16a13.57,13.57,0,0,0,5.62.79c4.52-.62,9-.91,13.59-1.09,2.32-.09,4.58-1.67,6.93-2.6v-5.14l-5-.3c.4-2.37,1.68-3,3.62-2.8l2.06,2c2.44.34,4.39-.6,6.52-2.41-1-4.36,2-8.17,2.2-12.92l4,1.91-2.25,3.2v5l4.41,2.65,1.82-3.61c.76-1.2.54-3-.08-4.91-.45-1.39.65-3.29,1.17-5.41l-3.42-2,.48-.52h-2.08l-.5-1.71,4.62-.37c3.8-2.29-.12-5,.72-7.69h6.73l1.75-5.35a7.34,7.34,0,0,1,5.95-2.84l8.27-9.58,4.16-1.31v-5.39l6.21,2.58,1.73-1.79v-6l13-10.9v-4.16l2-1.68,3.09,2.66v9.7l-3,4.36v4.1l2.65,2.37h8.15l3.06,4.91h2.74a9.67,9.67,0,0,1,1.38-1.35c3.57-2.37,3.88-6.37,5-10,.46-1.51-.44-3.16.62-4.76.82-1.24,1-2.9,1.56-4.58h3.21l2.79-3.09h4.48l4,4,1.35,3.86h5.55c1.92,2.4,1.52,5,1.51,7.3l2.13,3.59h4.48a5,5,0,0,1,.38,1.47,17.49,17.49,0,0,0,2.3,10.57,11.89,11.89,0,0,1,1.75,6.78c-.14,2,0,4,0,5.86l3.43,3.43c3.8.29,7.53,0,10.36-3.2.68-1.46-.75-3.54,2.69-4.73h9.14a4.64,4.64,0,0,1,1,0c1.37.31,2.74,1,4.08.91a16.37,16.37,0,0,0,4.09-1.25l4.14-4.86c-.19-.74-1.08-2.33-.82-3.71.43-2.29-2.6-2.7-2.09-4.69s-1.22-2.85-2-4c.54-3.05,2.79-2.22,4.45-2.38l1.78,2.95h6.39l3.49-4v-3.83h4.86c3.85-2.15,7.13-5,11.72-5.15l2.57,6.14-6.2,4v4.48l-1.88,1.5V477l6.81,3.21v3.27l5.62,5.41h4A7.14,7.14,0,0,0,724,482.3l11.66-10.21h3c1.74-2.27,3.69-4.58,5.37-7.08,1.46-2.17,1.33-2.26-.1-5.46l1.91-2.39,3.13,4.41c-.42,5.67,3.81,11.06,5.21,17.32h3.49c2.09-3.19,6.11-4.4,9.37-7l1.74,1.13c2.59-1.66,5.73-.78,9.14-1.05.05,1.8.12,3.56.14,5.32s0,3.33,0,5.37l-1.64,1.08c-.5,2.16-.87,3.89,1.22,5.31,3.38-.25,6.77.33,9.15,3.13l5.38-1.39,2.59,2.34,9.87-3.37,1.16,2.19h6.52l3.06-3.91h4.34c.11.41.41.89.33,1.29-.34,1.68-.8,3.34-1.23,5.06l3.21,2.59h4.49c1.14-1.17,2.63-2,2.71-4.26.05-1.48,1.83-2.09,3.67-1.5v4.62l-2.7,1.76v2c2.3,1.56,4.19-1.15,6.33-.57l2.95-2.95h5.14c1.92,1.18,1.5,5,5.46,3.54,0-1.6.4-3.65-.11-5.45s-1.12-3.65-.82-5.28l1.64-2.46,4.86,4.5h2l3.34-3.34v-3.21L859,482.46c.4-3.64-1.08-7.72,2-11,2.25-1.6,4.19-.1,5.78.88,2.49,1.52,3.41,2.26,5.88,2.56l1.69-5.74-4.93-.33-2.28-2.28v-8.43h3.24l4.56-4.56c-.52-3.54,4-4.29,3.87-7.53h3.59L890.92,457v10.81c-1.1.76-2.57,1.67-3.92,2.72s-2.21,2.95-4.5,2.54c-.38-.07-1.18.78-1.36,1.34-.53,1.63-.85,3.33-1.26,5l1.69,1.47a7.86,7.86,0,0,0,7.79-2.8h5.23l2.68-4h2.41c1,2.07-.75,3.3-1.16,4.88h-2c-.8,2-1.92,3.57-4.17,4.22-2.84.82-4.68,3.67-7.89,4-.62.05-1.12,1.39-1.78,2.26,5.39,2.06,9.49-1.12,13.83-2.59,1.53-.52,3.84-1.19,3.7-4.06,2.68.52,5.14,1,7.57,1.51A3.45,3.45,0,0,1,909,485c0,2.75-2.09,2.48-2.89,3.5a13.53,13.53,0,0,0-1.43,3.33c-3.33,1.38-6.29-2-9.88-.35-2.78,1.26-6,1.68-8.63,3.72v5.46l2.53,2.53,5.15-1.14,5.06-5.56,2,1.91v7.13l3,2.37h5.79c3-4,2.82-8.23.86-12.77l4-.21,1.77-1.77a3.28,3.28,0,0,1,.93-.15c4.11.57,7.85-.93,11.68-2,2-.57,2-2.21,2.27-3.89h3.5l4.31,4.43,3.6-3.61c1-2.79,1.81-6.48,3.46-9.76a10.71,10.71,0,0,1,9.78-6.3l1.81,4.17,5.25,5.82h2.64c1-.31,1.57-1.69,3.24-2a12.27,12.27,0,0,0,6.48-3.6,7.2,7.2,0,0,1,5.06-2.29,12.93,12.93,0,0,0,3.24-.91l3.55-2.6c-1.27-2.84-1.27-2.84-.15-7.52-1.84-3-4.6-5.66-3.85-9.88h4.29c2.21-2.44,1.28-5.38,1.68-8.05,2.59.93,2.64.9,4.05,2.72s3.4,1.49,5.09,2.23c1,.42,2.26.08,3.59.08.69-3.19-1.73-5-3.42-7.68l5.14-.46,2.45-2.36v-8.68l4.39-5.77h9.09C1021,423,1021,423,1021,417.47l1.53-1.53,5.21,2.26c3.52-1.48,1.37-5.64,4.25-7.52,1.7,1.65,3.39,3.19,5,4.84s2.72,3.14,3.89,4.5c.21,4.4,1.47,8.3,1.23,12.41a4.77,4.77,0,0,0,2.78,4.6,33.24,33.24,0,0,1,2.9,1.84h3.59l1.69,1.69c-1.38,4-4.42,7.5-4,11.9,2.74,3.52,5.57-.18,8.52.67l1.75-2.91.28.45,1.62-6.69c1.83-.94,3.78-1.38,4.74-2.6s2.9-.89,3.43-3c.38-1.51,2.45-2.59,3.69-3.79v-3.37h4.14a37.79,37.79,0,0,0-1.08,6.5c0,2,2.21,3.43,1.93,5.67a7,7,0,0,0,.16,1.51l3.65.17v5.6l-1.67.57v3.41l1.49,1.49,2.54-1.23,6.45,4.93h3.3l.12-2.53-5.57-4.84,1.86-2.35,8.72,2.29,7.38-5,1.41-4.28c3.65.37,6.09-1.48,8.47-3.8,2.62-2.55,3-5.57,2.57-9.08h4.84l2.24,2.42v5.89a7.48,7.48,0,0,1,3,7.66l11.83,13.09a8.18,8.18,0,0,0,6,2.84v3.75c-2.76.45-5.55-.34-8.16,1.06-.85.46-2.25,0-3.36-.17-1.37-.27-2.69-.75-4.17-1.18-4.54-6.61-7-7.21-12.68-2.57a9.21,9.21,0,0,0-6.4,1.48,2.89,2.89,0,0,0,2.06,3.62c4-1.92,8.37-.79,12.8-1.19v2.82l-4.12,2.75,1.24,4.12-5.21,5.21c.42,2.72,1.71,3.34,3.64,3.18l2.11-2h5l3.37-3.37v-3.4h7.27l7.07-6.73,3.06,9.22,6.87,1.47,7.77,7.77c3.95-.07,3.95-.07,6.85-2.27,1.4-2.68-3.19-3.88-1.37-6.78,2.39.4,3.18,2.73,5,3.87,2.26-.07,2.26-.07,4.57-2.45l-1.21-6c3.32-.15,4.29.54,5.22,3.15a35.8,35.8,0,0,0,2.1,3.86l1.7-4.77,1.12,1v-3.23a11.85,11.85,0,0,0-2.78-2.32c-2.19-.94-2.81-2.58-3.49-4.71s-1.35-3.93.28-5.81c-.15-4.34,3.84-7.09,4.33-11.23.09-.78,1.25-1.53,2.05-2.11,1.14-.81,2.4-1.44,3.82-2.27,2.66.67,5,1.84,6.24,4.87.88,2.15,1.84,4.37,3.79,6,.51.42.5,1.43.83,2.12.67,1.4,1.41,2.77,2.06,4,3.43-.31,3.43-.31,4.05-3.4a21.59,21.59,0,0,1,8-6.24c3.24-1.61,3.2-1.69,5.23-6.16h3.84l-1.28,6.11,2.43,2.74h4.22a8.92,8.92,0,0,0,4.46,5c1.73,1,3.41,2.06,2.9,4.52-2.46,2.53-5.57,4.71-5,8.58l6,6,4.72-3H1250a30,30,0,0,1,0,4.07,23.34,23.34,0,0,1-1,3.5l4.17,7.08h4.49l4.82,5.95c1.89.8,3.92-.36,6.08-.64,3.44-.45,7-.09,10.48-.13a24.68,24.68,0,0,1,11.24,3,11.72,11.72,0,0,1,3.86,2.66c1.33,1.59,2.86,1.3,4.48,1.26l3-3c1.86,0,3.85-.12,5.82,0a12.52,12.52,0,0,0,7.68-2c1.85-1.13,3.8-2.1,5.83-3.21v-4.73l-5.13-2.4,1.17-7.82,8-8.83c1.26-.29,2.38.13,3.17,2.11,1.06,2.68.85,5.39,1,8.08.16,1.85,2.55,1.29,3.12,3.15.42,1.37,2.28,2.3,3.5,3.43l6.34,1.41c0,2.08-.12,4.36,0,6.63s.58,4.4.9,6.64l2.84,2.62H1351V513h2v13h-2l.22,5H1353v5H2V518.56a39.93,39.93,0,0,0,0-4.48A33.09,33.09,0,0,0,1,510Zm655.22-12-1.68,2h-3.22l-1.6,2.31,5.39,2.77,10-1.25c-.32,3.53.23,6.42,2.18,9H673l2.24-5.67-4.55-7.29-8,1.22-2-3.12Zm-74.38-24.36,1.34,13,2.8,3.83,3.29-2.07-1.47-4.5,3.17-4.83v-4.65c-2-2.38-4.67-2.73-7.5-2.43Zm-6.78-.92.28,1.28-4.82,2.74c2.08,2.76,4.33,3.54,7.06,3.17l-.85-.9,4.48-1.85ZM956,525.26v2.44l3.35,2.14h4.56v-2.53C961.31,526.67,959.34,524.18,956,525.26Z" transform="translate(0)"/><path class="cls-4" d="M1,510a33.09,33.09,0,0,1,1,4.08,39.93,39.93,0,0,1,0,4.48V536H.5c-.17,0-.48,0-.48,0,0-.33,0-.66,0-1Q0,405,0,275c.33-.26.94-.51,1-.8.1-1.49,0-3,0-4.5V114.29l.59-.29a7.94,7.94,0,0,1,1.36,2.47c.53,4.05,2.21,7.79,3.11,11.74.19.85,1.18,1.52,2,2.56V138h4.65l5.19,6.56.16,3.39,3.92.18,1.5,3.82h8.37l.17,2.66a15.85,15.85,0,0,1-3.21,2.38c-2.36,1-4.7,1.89-6.38,4-.26.32-1.27,0-1.66,0l-8.72,7.26c.29,3.19.29,3.19,4.45,5.76,1.22,0,2.55,0,3.87,0,.13,0,.25.18.52.38l.12,2.06-3.91,3.92,2.8,1-.54.66c2.32,0,4.65-.15,6.95,0s4.67-1.18,6.33,1.08c3.21-1.49,4.78-1.21,5.34.77,1.59,5.61,1.59,5.61,5.51,8.1H53.76v-4.73l-3.09-2.75-2.5-10.13c-.09.15,0-.08.07-.1.77-.14,1.56-.24,2.22-.33l8,8h3.21l2.26-2.82v-3.77c-3.26-1.1-4.7-3.72-6.11-6.86l1.9-1.3,9.54,1.74c-1.71-3.38-1.51-6.93-3.66-10.1a11.52,11.52,0,0,1-1.25-9.67c.35-1.21.61-2.44,1-4a42.62,42.62,0,0,0,6.93-8.7c1.78-3.18,5.43-4.79,8.7-6.54,4.72,2,7.68,5.84,9.95,10.07A27.64,27.64,0,0,0,96,146.45v3.17l-1.81,1.46v4.28l-3,3v3.48c4.84.86,7.42-3,11.11-5,4.69.69,2.13,6.29,5.45,8.11h5l1.56-2.1,7.25,1.27c1.89-2.59-.95-3.53-1.85-5.58l2.5-.89-.6-.65,4,1.22c1.82-4.22-1.15-8.08-.39-12.23,2.48-.06,3.08,2.48,4.48,3l4.43-4.56v-4.18h3.9c3.25-1.89,3.46-4.86,4.32-8,1.2-.92,2.15-2.77,4.54-3.6l.33,5.89,3.05,4.5v4.34l4.18-2.68,9.61,7.19v3.67l3.12,2a12.12,12.12,0,0,1-3.2,7.14c-3.48,3.61-6.67,7.51-10,11.32,3.69,1.67,5.89.7,11.61-5h3.94c.92-1.16,1-3.23,3.31-3,.83,1.48-.65,3.84,2.22,4.89h5c.57.7,1.36,1.76,2.24,2.74s1.87,1.9,2.82,2.84c0,1.33,0,2.66,0,4a8.17,8.17,0,0,0-2.86,8.12,13.67,13.67,0,0,0,7.78,4.6l4.5,5.64,4.38-1c1.72,1.87,3.15,3.36,4.5,4.92a6.66,6.66,0,0,1,1.66,5.64l4.45,4.45h6.31l3.49-4.63c2.18-1.2,3.19.73,4,1.52l11.22-2.11a27.35,27.35,0,0,1,3.14-1.67,33.6,33.6,0,0,1,3.88-1l10.79,9h4.25l2.55-2.69,8.75-1L270,211v4a35.51,35.51,0,0,1,4.14-1,36,36,0,0,1,4.31,0l5.42-4c1.44,0,3.27,0,5.1,0,4.21,0,7.93.81,9.76,5.23.12.28.46.48.72.74h2.12c1.13-2.72,1-6.27,4.5-8.15l4.08,3.63,3.05-4.29,2.51-.27,3.2-4.26v-4.45l4.42-3.63c-1-2.19-2.71-3.3-4-4.71s-2.82-2.84-4.2-4.23v-3.56h4.68v-5.58l6.12-4.76c0-2.92,1-5.35,2.3-8l8.13,1.05c2.34,4.87,1.46,9.48,1.69,14.48l3.08-1.28c1.58,2.63,6.88,1.41,7,6.82l-7.58,5.56c3.43,1.75,6.18-1.37,8.9-.26,1.23-1.15,2-2.63,4.24-1.94l3.46-4.21,3.42.21-2.42,3.68v4.59l-5.1,11.7v4.39L354.5,210c1.92,0,3.93.13,5.9,0s3.73-.63,5.6-1c-.16,2.43.83,4.66,1.51,6.88a6,6,0,0,1,.06,4.1,22.25,22.25,0,0,0-.71,3.56c2.51,1,4.49,2.07,4.12,5.12-4.23,1.19-8-.26-11.8-2-1.55-.72-2.87-1.93-4.82-1.74-.63.06-1.34-.7-2-1.09l-4.06-2.31-.37,4.54,6.39,9.51-3.69.55-4.06-5.21c-3,.48-2.53,2.51-2.56,4.75l8.86,7.59V246c-.77,0-1.53.23-2,0-1.64-.89-3.1-2.5-4.8-2.81a21.8,21.8,0,0,1-4.9-1.53,10.39,10.39,0,0,1-5.18-4.75,17.5,17.5,0,0,0-2.33-2.84h-2.26l-1.23,6.75,1.73.78v4.24h-5.69l-.33-4.45c-2.23-1.32-3.19.72-4.5,1.69-2.09-.42-2.64-1.73-2.27-3.82l3.73-2.35.27-3.39c1.19-2,5.07-1.54,3.69-5.06-3-.33-3-.33-8.68,5.66-2.54-.76-2.23-2.75-2-4.43l3.21-2.31a5.85,5.85,0,0,0-.89-1.42c-1.77-1.38-3.59-2.7-5.31-4v-3.59l-3.48-2c-.84,3.3-3.13,4.66-5.52,5.64v4.48c.47,1.1,2.49,1.59,1.69,4.17l-1.77,2c0,.83,0,1.67,0,2.87l3.27,3.28-7.07,7.12h-4.45l-2.7,2.52c-.66,2.45,1.38,3.25,2.4,4.59h6.06l-.42.43,1.9.93c0,2.57-4.94,5.51-8.52,5.62l-3.56-3.56-4.66-1.19c-1.63-1.73-2.6-3.64-4-4.07-2.22-.67-2.71-4.23-6.09-2.85l-.26,3.4,8,5.41v3.48c-1.82,2-5.55,2.19-4.87,6.19h-3.56l-7.07-5.64h-2.31v6.15L262.67,272l-2.51-.12v-4l2.07-2.07-1.54-3.07c-3.5,1.62-6.73,1.86-9.94.19-1.69,1.95-3.33,3.9-5,5.8s-4,2.39-6.69,2.31c.35,3.7-2.25,5.59-4.44,7.84h-2.65c-2.23.86-2,2.57-1.86,4.66L233.5,287l-3.38,6.16v3.38l1.47,1.59,5.2-1.33v3.12c-2.49.17-5.25,0-7.91.08l-5.7-3h-5.66c-1.55,1.3-2.63,3.23-5.17,3.27-.64,0-1.25,1.66-2,2.69-2.81.74-3.51-2.26-5.32-3.3-.65-4.1-1.63-4.56-4.85-2.4-2.1,1.41-3.37.91-4.23-1.63-.3-.87-.69-1.71-.93-2.29-.51-.23-.65-.35-.79-.35-.83,0-1.67,0-2.13,0l-4.28,2.43-.33-.5-2.68,3h-5.58l-2.17-3.27v-3l-1.42-1.42h-2.44l1,6.82c-1.34,2.26-3.38,2.72-4.81,1.71-1.67-1.18-3.24-.14-4.81-.94l-6.52-6.52v-4h-3.5l-4.68,5.2-2.76-3.67-2.69,1.13-1.51,7.33-5.48-1.38-6.51,7.94V307h-4.41l-1.25,1.25-.82,7.49-10.95,8-7.25,1c-1.53-.91-1.5-2.63-1.15-4.22l5.71-2.37v-4c-.5-.07-.94-.27-1.1-.14-1.94,1.62-3.71,3.4-6.29,4.17-1,.29-1.66,1.55-2.64,2.53l1.35,5.75-6,5.56,1.19,7.08-4.37,5.77H90c0-.91-.23-2,.17-2.43,2.32-2.63,2.42-5.37.52-8.41l3.61-4-2.57-8.92H88.28l-3.43,4.41L88,333.33a11.52,11.52,0,0,1-3,9.33c-1.76-3.62-7-3.4-7.06-8.63L71,329.11c.26-3.76,5-4.91,6-8.62q0-6.5,0-13L74.51,305H70.25l-3.91,5.26-6.18-2.46c-.92-2.83,2-3.88,2.49-6s.91-4,1.47-6.41l-2-1,.41-.41H59.27l-4.18-5.59v-7.82L53.5,279h-3L48,276.5v-4l-2.87-4c-.87.83-1.85,1.31-1.93,1.91-.27,2.13-.63,3.65-3.38,3.79-1,.05-2,1.83-2.8,3-1.08,1.69-1.91,3.54-2.48,4.64l-10.2,5.49-2-2.19,3.46-2.92v-5.06c-2.31-.44-4.87,0-7.36-1a6.54,6.54,0,0,0-5.42,1c-2.4,1.88-4.48.4-6.2-.3A13.73,13.73,0,0,0,1,276.09Q1,393.15,1,510ZM334,209.88,330.53,206l-7.39-1.29-1.36,3.41c2.47,2.72,3.52,6.34,7.75,6.9C330.29,212.83,334.4,213.47,334,209.88Zm-135.66-8.23-3.55,6.55c1.36,1.31,2.14,3.33,4.49,2.83l2.61-3.74v-4.36ZM313.09,213l4.66,2.19c0-2.79,0-2.79-2.83-6.21C313.29,209.58,312.75,210.78,313.09,213Zm-243-43.92c0,1.41-.58,2.77.46,4,2.24-1.59,2.24-1.59,2-4Z" transform="translate(0)"/><path class="cls-4" d="M1353,526V513c0-11.49-.16-23,0-34.48.21-12-1.49-24-1.13-36.07.38-12.32.08-24.65.08-37,0-12.16.05-24.32,0-36.48,0-2.36-.76-4.71-.92-7.08s0-5,0-7.67a38.72,38.72,0,0,1-5.47.71c-2.19,0-3.5-2.43-5.29-2.77-2.5-.48-3.5-1.3-3.2-3.74,1.49-.48,3-.88,4.42-1.45s2.73-1.59,4.19-1.9a26.14,26.14,0,0,1,5.16-.08l1.46-7.4-7.14-9.49,2.19-5.85-5.22-5.21v-4.77l5.08-3.51,2.56,3.3L1354,311V531.5c0,1.5,0,3,0,4.5h-1V526Z" transform="translate(0)"/><path class="cls-4" d="M1353,308h1v1Z" transform="translate(0)"/><path class="cls-4" d="M387,202l5.12-6.51V180h12.4c1.46-2.08,1.46-2.08,1.54-6.59l2.1-2.1,7.12-1.68-3.42-7,1.36-3.44,6.57-1.54V144.31c2.22-.58,4.35-.23,6.43-.3s4,0,6.4,0l1.83-2.5,3.32-9.93c-1.14-2.93,3.29-6.81-.05-10.81,3.9-4,8.19-7.53,10.23-12.67h4.21l3.68,9.35c1.2,1.51,4.05,3.4,5.28,6.84.78,2.19,1.46,3.77-.46,5.6a13.68,13.68,0,0,0-2.46,3.47,7.32,7.32,0,0,0-.27,2.5h5.57c.45,3.66.45,3.66-4,8.13a2.85,2.85,0,0,0-3.5,1.86c2.75,3.63,3.29,3.93,7.57,4.15l1.61,1.87h4.56l6.72,3.3,6.5-3.67c4.13,3.78,3.36,7.9,2.08,12.29h6.73c2.55,6.1,8.23,9.74,11.64,15.23,3.28-1.78,6.76-.75,10.13-1.07l7.67,5h3.37a2.89,2.89,0,0,1,.61-.67c3-1.79,5.26-4,4.94-7.9-.07-.84.58-1.73.87-2.61,1.57-4.93,1.55-5.07-1-9.27,0-.16,0-.32,0-.48,0-1.17,0-2.33,0-3.54l-6-5.88v-6.45l-3.77-.29L514,138.37V132.5c1-1.31,2.1-1.95,3.8-1.22s3.78,1.36,6.16,2.2l3.59,3.59a14.72,14.72,0,0,0,2.24-.41,15.65,15.65,0,0,0,2.13-1.08v-9.91L524,116.25v-5.06c1.52-4.7,4.69-5.6,8.46-5.15l5-5h1.77l6.28,5.35,1.13-5.13c-.22-1.52-.57-3.06-.64-4.61-.13-2.87.43-5.85-2-8.22-.33-.32,0-1.28,0-1.91l1.56-1.56,3.89,1.4,1.83-3.51.71.68v-4c1.76-2,3.67-3.63,6.63-3.59l2.64,4h2.31c2.11-4.41,1.22-9,1.46-13.42,1.93-2.42,4-1.61,6.49-.25L573,63.3v-.7L576.47,59h3l3.37,3.37V66.8L590.2,70l4.5-1.23c1,3.46-.29,6.36-1.23,9.1a19.45,19.45,0,0,0-1.29,9.79l1.56,1.4,5.28-5.3c.3-1.53.3-1.53,2.73-3.78.5,0,1,0,1.5,0a2.41,2.41,0,0,1,.59.24v9l-3.22,2.64,1.9,2.19c3.1-1.08,5.92-2.68,9.41-1.86v5.43c2.66,1.24,4.15-1.22,6.65-1.73l.82,2.17.6-.58q0,2.5,0,5c2.26,2.14,2.09,4.92,2,7.74a10.59,10.59,0,0,1,2.07,6.6c-.16,5.3,0,10.6,0,16.26,5.1-.69,9.05-3.61,13.47-5.47.73,4.86-.22,8.11-3.2,11.61l-1,12.61c1.72,1.15,4.26,2.3,6,4.18s2.69,4.5,4,6.89h2.91l3.27-2.27c3.55,1.71,3.95,6.56,8.36,6.41v7l4.38-1.34c4,4.42,7.14,10,13.27,12.51,1-2.5-.28-4.09-1.53-5.91v-6.07l10-7.36c0-2.94-.12-5.74,0-8.53a25.63,25.63,0,0,1,1-5.57c.48-1.65,1.82-2.18,3.55-1.72a29.26,29.26,0,0,0,2.46,4.36,54.08,54.08,0,0,0,4.33,4.42l3.53,8.93h3.76l1.28-1.29v-4.37L701,159.83v-3.37L705,152.5c-1.81-3.7-.24-8.26-3.16-11.46l7.89-9.34,2.27,1.67c0,1.12,0,2.12,0,3.12l4.38,4.38,2.21.22,4,4,3.54-1.67L724.76,141H720.9c.18-1.12,0-2.38.53-2.81a4.19,4.19,0,0,0,1.53-4.41l-4.84-5.91,2.39-9.74h2.14l3.83,3.83h3.26l3.76-5c3.55.74,7.27,2.32,11.4-.52l1.69-4.46,3.49-3a18.43,18.43,0,0,1,1.56-10c1-2.29,3-4.14,4.45-6h3.19L765,97.86h6.17V89.07c2,2.18,3,4.43,5.19,4.69a68.15,68.15,0,0,0,7.46.06l2.12-2.9V88.1L781.19,86V79.91l2.88-2.32V75.43l4.71-4.71c.63-1.38-.26-3.1,1.17-4.49a59.11,59.11,0,0,0,4.55-5.51c2.28,1.78,2.28,1.78,3.14,4.66l4.76-3.85,1.93,6.19c3,1.57,3,1.57,4.73,5.92-1,4-4.66,6-7,8.91v2L803.51,86l7.17-1.3,3.95-3.42.46,4.13-4.24,4.24-9.29-.91c1.69,3.34,1.13,6.74,4.1,9.37l5.91-1.18L813,99h7.51l4.1-4.29c.67,3,.27,5.74.35,8.38.08,2.82,0,5.65,0,8.59l6.19,6.19a9.6,9.6,0,0,1-1,2.39c-.95,1.27-2.37,2-2.34,4.1,0,1.23-1.58,1.93-3.22,1.63-2.08-.55-1.36-4.61-4.68-3.91-2.6,2.13-2.6,2.13-3,4.34,3.21,1.54,5.08,4.56,7.84,6.87v2.11c2.58,2.17,2.59,2.15,4.84.41l1.15-7.66,3.72-.2,2.48-4.85c2.34-.18,5,.38,6.79-1.48a56.54,56.54,0,0,0,4.18-5.49,5,5,0,0,1,1.61-5c1.76-1.39.5-4.1,3.92-5.14l5.19.74,3.28-1.93a30.6,30.6,0,0,0,0-3.61c-.22-1.78.83-3.12,1.73-4.27,2.4-3.07,5.11-5.91,7.63-8.77,2.19-.68,4.8,1,6.68-1.73V75.46l1.71-1.62,2.8,1.4,6.71-8-1.3-7H891l1.91,2.38L897.85,64V59.95l6.34-8V43.94l4.66,1.42,3.93,4.14c2,4.53.94,9.65,1.23,14.51l2.22,4.88-4.64,3.92c1.76,2.21,3.05.63,4.61.1,4.51,3.16,3.72,8,3.8,12.6l1.7,1.7,6.42-3.76c-.42,4.47.65,8.36-1.13,12.07-1.56,3.25-.81,6.69-1,10l3.18,1.61a35,35,0,0,0,3.78-2.62c2.38-2.13,4.32-4.73,7.65-5.73,1.12-.34,2-1.73,2.84-2.74a23.59,23.59,0,0,1,10.51-7c1.81-.52,3.68-.84,5.93-1.34-.48-3.72,1.37-7.33,2.45-11.49l3.74-3.68V68.14h2.09c2.66,2.08,5,4,7.52,5.82.58.42,1.64.13,2.26.52,1.61,1,3.1,2.25,4.8,3.51h3A23.71,23.71,0,0,0,987,74.15c.46-3,.55-6.08,1.11-9.06a8.16,8.16,0,0,1,2-3.62c2-2.23,4.2-4.28,6.36-6.43h2.87l8.22,6.71c5,1.11,8.81,4.33,11.47,9.14,1.59,2.87,3.47,5.57,5,7.92,2.18.64,3.3-.15,4-1.32,1.92-3.3,3.33-6.79,3-11l3.38-2.54c2.92-.78,5.16,2.05,7.24,4.16l4.34-4.35V58.6l2.12-2.12V48.15h2.63c2.07,2.06,4.23,4.23,7.13,7.12v-7l8.17-10.18h1.66l1.38,8.4,2.83,2.83c.86,3.2-1.1,6.71,1.47,9.7h5.1c3.16,2.23,1,4.54.58,6.72s-1.13,4.17-1.87,6.79l1.87,2v3c-.93,2.45-6,.46-4.76,5.27l2.71,2.25c1.09,0,3.08.58,4.31-.13,1.92-1.12,3.78-.65,5.66-.87,5-.58,7.6-1.27,11.5-4.84,1.27-1.16,2.12-3,4.41-3.28.79,3.59-1.26,6.49-1.77,9.65.12.12.23.33.35.34,1,.08,2,.13,3,.19l2.63,2.43-2,12c3.94.69,8.67-1.62,13.87-6.82l.25-2.38,1.37-.35,1.81-4.26c4.59,2,2,4.91,1.56,7.63l6.87,5.62h5.56c-.58-1.05-.81-2-1.43-2.48-5.41-4-6.88-6.67-6.85-13.1,0-.65,0-1.3.71-1.37l.72-2.15,5.53,5.53v4.61l5.32,2.14,1.55-1.37V87.37l-5-3.92,1.48-3,5.27-3-2-2.42h-3.1L1136,71.71V67.83a19.3,19.3,0,0,1,1.46-2.77c1.57-2,3.25-4,4.89-6h4.16l7.94,7.42L1151,71.94v2.83l3.53.38a17.26,17.26,0,0,1,3.39,9.13,8.48,8.48,0,0,1-.84,2.78c.72,1.17.88,3.07,2.89,3.47.52,3.76-3.21,4-5.14,6.14,2.37,4.79,5.46,8.72,11.86,9.68l3.32,3.79a7.94,7.94,0,0,0-1,2.76,3.29,3.29,0,0,1-2.19,3.27c-.62-.29-1.45-.69-2.29-1.06s-1.71-.71-2.38-1l-3.6,4-.62-.62v4.17l9.25,1.56,5.82-6.08c2.68-.43,4.94-.79,6.88-2.46.83-.71,2.37-.61,4.05-1-.5,6.58,1.92,12.57.86,18.67l1.59,1.59h5.2c1.37-1.72,2.82-3.64,4.37-5.47,2.09-2.47,4.63-3.94,8-3.52a36.11,36.11,0,0,0,4.42,0l1.48,1.48v3l3.65,3.53c2.56.62,3.35-2.07,5.41-3.31l2.33,3.26h3.16l2.58,2.93V140c2.36.09,2.92-2.11,4.37-2.84h3.43v2.44l-5.66,4.39-.55,3.16c-.64-.2-1.27-.2-1.49-.49-.76-1-2-1.48-2.33-3-.24-1.23-1.66-2-3.34-1.54-2.26,1.79-3.86,4.06-3.54,7.33l5.06,2.82c-.49,2.51.2,4.87-.88,7.56-1.18,3,.26,6.23,1.77,9.11h3.6l1.55-1.46a5.08,5.08,0,0,0-.51-1.28c-.4-.53-1-.89-1.38-1.44-1.88-2.94-1.66-5.48.75-8.16,1.32-1.46,2.78-2.8,4.21-4.23l-1.27-2.32,5.25-6.85h4.47l3.84,3.84h3c.83-1.7,1.45-3.75,4.32-2.76V150l-2.73,2.19v2.34l1.63,1.62,1.35,7.39c1.44,1.07,2.35,3,4.32,3.56,1.56-1.61.24-2.75-.51-4.33l2-2.21v-4.45l3.88-.17,5.3,8.79V170c1.17.41,2.69.58,3.72,1.38,1.27,1,2.53.39,3.3.55l8-9.91c2.68,0,5.16,0,7.63,0a12.42,12.42,0,0,1,5.62.92c4.14,2,8.69.76,13.14,1.12l4.62-5h2.81v4.84l2.72,4.05h2.26l.21-2.42c2.71-3.51,7.69-5.71,7-11.54h3.42l2-2h5.86l5.45,3.94H1353v99h-5v3.48c-2.63,2.66-2.63,2.66-2.94,4.47l5.37,8H1353v8c-1.79-.44-1.79-.44-3.46-1.94h-5l-4.68-4.68,1.29-4.6-2-2.2v-4.22c-.59-.14-1.08-.42-1.48-.33-1.35.32-2.67.76-3.77,1.09l-7.82-8.85V246.5L1324.6,245c-.62.1-1,0-1.23.21-.75.66-1.43,1.4-2.14,2.1-3.31,3.29-4.06,3.74-4.81,8-.55,3.1-2.07,5.51-3.44,8.11a12.48,12.48,0,0,1-1,1.46l1.38,6,3,3h4.5l.16,3.27c-2.94-.6-5.6-.81-7.4-3h-3.83l1,5.71h-2.48l-1.76-1.76h-4.23l-1.21,6.57c-2.85.6-4.93,3.37-8.27,2,.52-2.53,3-3.39,4.25-5.58-1.81-3.8-7.07-3.68-9.19-8.11v-4.14l-4.74,1.25-4.57-2.56c-1.86,3.72-4,6.33-8.58,5.32a12.07,12.07,0,0,0-1.52-2.66c-.72-.77-2-1.08-2.68-1.85a7.75,7.75,0,0,1-1.07-2.4c1.2-1.27,3.52-1.08,3.16-3.53a4.18,4.18,0,0,0-1.26-.32c-5.76.32-9.69-2.55-12.69-7.13-1.73-2.63-3.53-5.22-5.26-7.77h-3.34c-1.59,1.49-1.86,3.34-2.51,5.14-2,5.52-3.26,11.39-7.49,15.9-2.22,2.36-4.13,5-6.39,7.76v3.49l-3.42,3.41c-3.33,1.12-6.29-2-9.9-.22,3.45,5.15,8.34,8.14,13.82,10.64l5-2.45,2.36,3.54v3.46a28.2,28.2,0,0,0-7.85,3.71v5.29c-2.54.49-5.13,0-8.26.33l1.24-4.74-2-.84.39-.89-3.44,1.44v4.66c-1.6.65-3.59-.51-4.83,2a8.12,8.12,0,0,1-3.59,7.19l-5-1.27-1.39,3-4.79-2.19L1202,309l-1.12-2.25c2-2.63,5.59-4.48,5-8.79-3.28.08-2.9,3.42-4.82,4.55a49.55,49.55,0,0,0-5.47,4.33H1191l-1.47-3.38,6-3.4a22.52,22.52,0,0,1,1-3.11,14.37,14.37,0,0,1,1.65-2.22c-3.07-2.78-4.05,2.82-6.58,1.06l-3.61,3.92c.12,2.65-1.64,4.51-3.57,6.28-4.3.37-3.66-4.19-6-5.75-2.58-1-3.36,1.71-5.07,2.74-1.9-.33-1.9-.33-3.15-1.73l4.51-4.5-.51-.51a12.87,12.87,0,0,0,2.69-.75,14.81,14.81,0,0,0,2.34-1.91l3.65,2.41c4.51-1.17,4.77-1.43,9.12-8.67-.07-1.48.29-3.42-.31-5-1.36-3.6-3.19-7-4.75-10.34h-2.65l-6.86-8.25-6.29,3.81c-.75,3.24-3.64,5.24-6.31,8.11l2.63,11.27,1.5,1v2.86l-2.06.21-5.23-5.24-3.6,1v5.77l-.65-.48-.91,2.22-6.17-3.79-3.41,2.75-2.89-1.35v-4.48l-3.38-6.49h-4.14c-2.28-1.43-1.33-3.44-1.59-5.38-1.12-1-2-2.34-4.1-2.72s-2.9-2.78-2.83-5c.05-1.59-.65-2.42-2.4-3-2.82,3.42-6.55,6.47-3.47,11.72-2.28,1.07-4,.18-5.77-.84l-4.54,2.52,1.37,7.79-5.11,1.4-.17,2,9,7.78v2.62l-2.08.2L1110,295.1h-7.77l-7.13,8v5.27l-5,5c-3,2-3.49-1.8-5.84-1.4,0,.52-.24,1.29,0,1.62,1,1.12,2.25,2,1.73,3.79-.18.6-1.95,1.4-4,1.83-.22,5.28,5.07,7.08,7.49,11.29l-3.88.53-2-2h-4.16l-1.57-2.39-5.15,1.51-2.39-3-8.66-1.33-2.69,2.41-2.95-2.73-5.77,2-6.61-.92-3.84,4.39a7.4,7.4,0,0,1-6.63,0c-2.42-1.13-4.88.8-6.77,2.94l-11.09-1.43-1.61-2.79a8.57,8.57,0,0,0-2.71.68c-3.5,2.36-3.47,2.41-7.5,2.44l-2,2c-.4,0-1,0-1.67,0-.48,0-1,0-1.4-.07l-2.18-2.18L988.44,332l-2.86-6.52-9,7.44h-3.56c0-.88-.31-1.89.06-2.41a53.32,53.32,0,0,1,4-4.48l5.82-1.41,2-2v-3.31l-1.83-.84v-2.88a10.67,10.67,0,0,0,2.21-1.42,18.82,18.82,0,0,0,1.46-2.37c2.19-3.12,1.69-4.21-2.5-4.87v-6l-9.18-9-6,1.35v10l-6,3.85v3.3l2.44,2.78c-.73.4-1.15.83-1.46.76-1.21-.26-2.67-.35-3.5-1.1-1.35-1.24-2.72-.74-4.08-.77l-2.29,2.29v4.25l1.81,1.81v7.16l-3.69,3.23-5.53-1.26-2.36-2.93c-4.08,1.23-5.78,5-8.91,7.22-2.14-.15-2.14-.15-4.65-2.53.36-1.4.41-3.29,1.3-4.6,1.07-1.57.75-3,1-5-3.68,1.16-5,4.35-7.84,6.27a9.92,9.92,0,0,1-9-4.66l5.73-.51c1.12-4.25,5-7.84,3.83-13.48a13.39,13.39,0,0,0-9.46-4.57c-2.12-1-1-3-1.34-3.92l-7-4.8V287.4a12.76,12.76,0,0,0-4.64.86l-1.15-2.78,2.61-4.47v-5.82H891.55c-.42-.48-1-.82-1-1.23a19,19,0,0,0-3.47-8.08c-1.18-1.71-1-1.82-.54-5.38l1.88-5.74c-2.57-2.09-4.55-4.3-6.65-6.37-1.24-1.22-3.27-1.65-5.23-2.57l-2.5,3.4,1.08,5.77a53.84,53.84,0,0,0-4.43,3.93A35.81,35.81,0,0,0,867.8,263c.78,2.69,2.14,4.85.34,7.56-1.19,1.8.63,5,2.79,6.44.76.5,1.49,1,2.56,1.8L869.62,283h-7.36l-2.59,3.23c-3.65-.8-6.93-1.89-10.38-1.93-.35,0-.71.66-1.41,1.37v6.29c-2.45.49-3-3.41-5.81-1.42.44,2.54-1.21,5-1.94,7.64-.78,2.88-3.62,4-4.3,7.14l-11.51-1-3.19,3.62h-4.46L812,304.64c0-3.56-.59-7.33.17-10.8.7-3.2.61-6.37.88-9.46,1.51-.77,2.51-.31,3.61.68a9.77,9.77,0,0,0,2.93,1.23c1.16-2.93-1.24-4.43-1.59-6.5,0-.15.07-.4.15-.42.77-.18,1.55-.32,2.48-.5l5.16-5.16,1.43-9.57-1.91-.14-4.14,4.14h-4.85c-1.84,1.81-1.36,5-4.17,5.89l-2-.11c0-.56-.26-1.1-.09-1.45.68-1.38,1.49-2.69,2.35-4.21l-2.4-2.86v-3l3-2.76c-.44-2.87.74-5.21,2.94-7.14V243l-1.56-2.32-4.2,2.92-.34-5.21L808.44,237c-1.59,0-2.05.68-2.46,3.54-2.31,2.09-4.14,4.91-8.55,5.71,2.1-2.85.67-6.2,3.81-7.85l-1.47-4.48,3.42-3.77-1.23-1.8c-3.83-.36-3.83-.36-6.51.84l-1-2.11-.44.43v-3.09c-.59-.45-1.25-1.38-1.86-1.35-3.08.16-5.18-1.41-7.15-3.58-.07-2.78.55-5.83-2.32-8.27h-4c-1.5-3.49-4.37-3.31-7.22-3.2l-2.7,2.7,2.61,7.06-2.75.32c-2.21-2.07-4.39-5-8.52-3.86-.54,3.54.72,6.8,1.93,10s2,6.39,5,8.23l-.29,3.16c-2.6-2-4.65-3.72-6.89-5.17-1.47-1-3-1.35-3-3.75,0-1.5-1.84-2-3.83-1.53,0,2.77-.49,5.58,1.65,8.1.48.57.2,1.77.31,3.23l-4.7-2.83-6.19,4.68v3.37L740.38,248h-4c-1.43,3.12.64,5.79.62,8.63s0,6,0,8.85l-1.34,1.34h-6.42v13.5l-8.3,6.93,1.4,4.53-2.8.21c-1.92-1.64-2.09-4.44-5-5.1a12.39,12.39,0,0,0-1.21,2.25c-.6,2-.66,4.36-3.76,3.84-1.54,1.84-3.1,3.66-4.59,5.54-.47.6-.56,1.65-1.13,2a11.14,11.14,0,0,0-4.88,5.93c-.09.24-.5.36-1,.72l-1.9-1.47v-7.12l-1.41-1.41h-3l-3.77-3.77,1.19-8.69L686.63,281c-.56,0-1.07-.05-1.17.11a28.67,28.67,0,0,1-7,8.09,5.09,5.09,0,0,0-1.57,4.31c.06.81-.7,1.68-1,2.38-2.09.19-4,.6-5.11-2.12l2.31-5-1.1-2.92a28.6,28.6,0,0,1,0-2.87,12.19,12.19,0,0,0-1.1-7c-1-1.73-.81-3.39-1-5.56L667.08,268c-.18.08-.74.16-1,.47-2.08,2.49-4.11,5-6.19,7.59-1-.08-2.27.11-2.46-.26-1.08-2.06-3.65-3.3-3.39-6.44l5.75-4.49c.27-5.32.27-5.32-3.53-8.85a2.82,2.82,0,0,0-3.24,1.63,25.4,25.4,0,0,1-1.23,3,11.07,11.07,0,0,1-2.58,1.88v-6.9L646,252.95l-7,1.23L637.42,250l-4.33-3.89v-5.23l-3.77-6.09-6.69,2.48-.51-.68-5.41,5.51a10.91,10.91,0,0,1-1.53-1.47c-.25-.34-.18-.92-.24-1.33l2.2-4-1.59-2.13-6.25,6.43-.69-.63h-2.22l-1.7-3.81a13,13,0,0,0,3.36-7.61l-1.93-1.78V220L602,214.61v-3.11L599.46,209h-8.19c-2.82,3.83-3.29,8.8-5.5,12.76,1.65,3.54,6.23,1.78,7.33,5.25h3.75v3.62l-6.21,7.58-6.22-.94c-2,1.77-4.92,2-8,1.61-.12-.12-.33-.23-.34-.35,0-.66,0-1.32,0-2.33l-4.11-.27c.25,5.37,1.94,10.45.76,15.86l-1.89,1.89c-2.56.57-2.56.57-4,3.09l3.25.28,4.53,4.55c4,.85,4,.85,4.4,4.08l-6.44,1.58-2.83-4.22h-5.35l-2.92-4.36-6.06,3.57c-.3-3.82-.9-7.42-4.45-9.63v-8a11,11,0,0,0-1.93,1.29,22.94,22.94,0,0,0-1.62,2.28c-4.28-2-5.53-6.64-9-9.2h-4.85c-2.32-2.58,1.65-3.45,1.47-5.88a6,6,0,0,0-2,.41c-1.2.76-1.81,2.35-4,2.78,0-2.4,0-4.5,0-6.6s0-4.28,0-6.39l-4.89-1a10.53,10.53,0,0,0-3.58-8.32c-3.44-2.38-5.91,2-8.2-1.18-1.43-2.79,1.13-5.24.67-7.95l-4.15-5.51V193.2l-1-.19L503,202.63l2.42,4.65c-3.27,1.69-3.2,5.43-5.86,8a15.84,15.84,0,0,0,2.81,1.73c3.23,1.13,3.47,2.12.75,5.33l-3.65-3.16h-3.12L495.1,226l2.62,4.79-5.56.3v-3.56l-2.86-2.09v7.33c2,3.64,6.59,8.18,9.54,9.66v3.52l-2.06.1-2.27-3c-.6,0-.86-.07-.91,0-.59.91-1.14,1.84-1.75,2.84h-5.49c-3-2.94-6-6.05-10-8.18-2.1-1.13-3.41-3.73-5.29-5.92l-2.71,2.19c-2.39.45-4.47-.53-6.43-2.39a14.18,14.18,0,0,0-2.35-10.38c-1.34-1.9.06-3.89-1.13-5.27l-1-2.36-1-.06-.64,2.65-.83-.75v3.15L452.14,221c-3.27-1.25-5.95,2.75-10,2l-.24-4.51L439,216V212.5c1.09-1.18,2.74-2.08,1.79-4.15-3.5-1.55-6.88-3.76-11-3.35L425,208.82v2.85c-5.32,3.86-10.9,7.23-14.15,13.25-1.49,0-3.29.54-4.32-.12a4.16,4.16,0,0,0-4.49-.31c-1.74.82-3.41,1.65-4.06,3.74-.22.7-1,1.24-1.25,1.58l-7.63-1.2-2-2.78c0,.12,0-.66,0-1.45,3.07-2.27,3.07-2.27,11.47-2.47,5.58-5.58,6.83-7.5,7.39-11.42-.12-.12-.22-.32-.36-.34-.64-.09-1.29-.13-2.26-.22L400.92,213h-4.49l-3.92-2.88c-.59-2-1-3.17-1.28-4.39s-.26-2.23-.41-3.7Zm427.43-68.13c-2.29,1.61-4.91,1.12-7.45,1.12a12.28,12.28,0,0,0-6.85,2.25v3.14l5.69,3.53h9.77l1.28-1.28v-4Zm434.28,80.21a64.43,64.43,0,0,1,1.24,6.47c.2,2.3,0,4.62,0,7.37l2.92,2.43.28,3,4.73-1.25V218.42l-5.7-4.33ZM1036.89,75.51l1.39-3.51c-1.1,0-1.84-.22-2.33,0-1.37.73-2.63,1.66-3.95,2.52,0,1,0,1.95,0,2.94.47.47.87,1.24,1.42,1.36a22.76,22.76,0,0,1,12.05,7c1.3,1.38,3,2.37,4.36,1.31l4.56-3.67-9.66-5.65H1040Zm181,137.27c3.42,1,4.06-2,5.69-2.68h4.05l2,2h4.42l1.47,3.89,2.43-.13v-3.47l-14.14-11.61-3,1.38C1221.79,206.37,1218.32,209.06,1217.86,212.78ZM1092,131.68c.35,4.81-4.82,5.15-6.23,8.53,2.73,3.35,6.3,2.89,10.38,2.68l5.89-5.32c-.47-2.52-.43-2.56-2.76-4.61ZM1107.5,174c-2.74.6-4.36-2.41-7.15-2.07a68.86,68.86,0,0,1-8.26.07c-.1,2-.58,3.75,1.71,5.1l5.94-1.21,4.41,5h4c2.5-1.07,1.79-2.88,1.83-4.47ZM1124,130.05l-1.2,2.92,4.69,6c4.14.09,8.38-.72,12.36,2.63l.15-3a9.08,9.08,0,0,0-7.13-3.89l-4.71-4.73Zm-54.3-10.46c.76,3.05,1.93,5,4,6.44a4.18,4.18,0,0,0,4.33-3.71,3.89,3.89,0,0,1,1.54-2.27c2.09-1.29,4.32-2.33,6.35-3.39a6.6,6.6,0,0,0-.05-2.2c-.24-.57-.89-1-1.37-1.45h-3.45c-3.37,1-2.37,4.72-4.87,6.12l-4.3-1.24Zm40.36-4.29,5.34,5.77c2.36-2.13,3.91-5.26,6.73-6.93l-6.2-6.2c-1-.2-2.77.18-2.84,1.85-.08,2-1.46,2.78-2.4,4A4.62,4.62,0,0,0,1110.08,115.3ZM1083,191.05l-1.32,3.18,2.74,2.67h8.07l3.42-2.26v-2.76l-2.36-2.85h-3.75l-1.24,2Zm20.77-63.86c2.81-1.28,5.1,1,7.6,1.92l1.44-1.44v-4.32l-1.24-1.24h-8.18C1101.65,123.62,1101.29,125.1,1103.8,127.19ZM581.15,226.07l-.13,2.8,3.52,4.05h6.06l2.15-2.27-2.63-1.17.43-.59h-5.29C584.81,226.7,583.68,225.63,581.15,226.07ZM1060,109.17l-6-5.06h-4.69l-1.76,2.16c3,1.65,6.4,2,8.23,5.27ZM913.89,99.56c1.57,6.24,1.57,6.24,3.27,7.33L921,103c.28-2.6-2.48-3.26-3.52-5a7.16,7.16,0,0,0-2.13.23A6.85,6.85,0,0,0,913.89,99.56ZM823.5,160c2.92-.37,2.84-.62,4.54-3.4-2.68-3.56-6.41-2.53-10.66-2.62C818.84,157.5,822.47,157.61,823.5,160Zm47.76-8.11c-.53-1.44-1.18-2.44-1.19-3.44,0-1.42-.21-2.58-1.48-3.39h-4.24c-1.76,2.62-1.77,4.43.2,4.74a8.27,8.27,0,0,1,3.76,1.85C868.93,152.13,870,151.87,871.26,151.94Zm236.27,5.12,6.31,5,2-.17v-3.55l-2.13-3.2h-4.35ZM805.13,110l3.91-3.5-.15-2.5-8.79,1.36v2.43c1.18.73,2.34,1.52,3.57,2.17C804.06,110.17,804.64,110,805.13,110Zm213.29-23c-.85,1.88-2.17,3.62-1.19,5.65,1.3,1.77,2.92,1.35,4,1.21,2.5-1.21,1.72-3,1.72-4L1020.64,87Zm76.49,17.86.58,4.09,6.54-6.54-.25-3.45h-2.3Zm80.95,41.5c1,3.62,1,3.62,6.24,3.39l1.15-3.16c-1.64-1.31-2.51-3.25-4.13-2Zm-21.71.92,2.34-2.68c-2.35-1.8-.15-5.58-3.52-6.72-1.45.66-2.27,1.59-2,3.09C1151.48,143.25,1151.51,145.71,1154.15,147.33ZM1025,142.84l2.67.13,3.87-3.87-1.21-2.29-5.34,1.56Zm96.7-40.61c.79,2.39,2.65,3.32,3.74,4.75h3.21l1.71-2.39-4-2.63Zm36.47,35.86v4.75l1.55,1.07,4.47-4.08-1.56-1.73ZM931.25,134v4.81l3,2.73,1.7-2.46V136.5l-2.47-2.5ZM1182,128.5c-.31-3-.32-3.05-3.55-3.53l-2.6,3c1.11,2.49,3,2.12,4.73,1.94Zm-118.91,49.33h3.63c2.12-3.43,1.68-4.3-2.24-4.82l-1.39,1.39Zm-523.23-1.53v-6c-1.81-.92-2.86,0-3.71,1v3.85Zm-57.78,8.78c-.33,2,.07,3.44,1.7,3.86s2.78-.27,3.4-2.55l-2-.79.48-.52Zm520.77-121,.38,1.94,3.9-.19-.34-1.76Z" transform="translate(0)"/><path class="cls-4" d="M336.72,247h1.76c3.1,2.76,3.18,6,1,9.45,2.94.4,2.94.4,5-1.45h3.14l1.74,6.12c1.16.55,2.52,1.64,4,1.78,1.83.18,3.26,1.58,3.34,2.47.27,2.89,2.59,4,4,5.88a33.61,33.61,0,0,1,1.84,3c-2.83,1.35-5,2.62-7.87,1.09-1.32-.7-3.21-.33-4.65-.43L345,269.76v-4.45c-4.24-.42-5.69-4.3-8.88-6.45-1.93,2-6.1.75-7.29,4.93h2.7a5.72,5.72,0,0,1,.48,1.41c0,1.31-.21,2.69,1.6,3.67h3.2v4.33L328,271.89l-3.91,2.71L321,270.91c.54-2.36,3.34-2.54,5.06-4.56l-1.19-4.47c1.81-1.89,2.6-5,6.42-5,.94,0,1.9-1.62,3.06-2.69L332,251.36Z" transform="translate(0)"/><path class="cls-4" d="M370,208v-1.57c2.07-.52,3-1.76,3.24-4,.21-1.72,1.53-3.31,2.55-5.35A5,5,0,0,1,381,199v5.51l2.91,2.88v4L387,214v2.61l-5.68,3.12-.47-4.42-7.06-4.57V207Zm7.83-6.08v-2.83h-1.67v2.83Z" transform="translate(0)"/><path class="cls-4" d="M348.65,303.85,343.51,309h-2.14c-.44-1-1-2.15-1.35-3.31a5.77,5.77,0,0,1,0-1.78l6.8-6.81c2.26.85,2.26.85,6.78-.17l2.27,3.22c-.25.95,1,3-1.45,4.85Z" transform="translate(0)"/><path class="cls-4" d="M578.84,275.71c.27-1,.5-1.9.72-2.77s.38-1.51.59-2.4l3.64-2.46h7.78l1.28,1.28v6.3l-2.06,2.06c-2.26-.25-4.29-.4-6.28-.73C582.69,276.68,580.9,276.18,578.84,275.71Z" transform="translate(0)"/><path class="cls-3" d="M140.15,477.1h3.57l1.39,3.67-11.31,15.1H130.1l-.13-2.1C134.6,489,136.45,482.43,140.15,477.1Z" transform="translate(0)"/><path class="cls-4" d="M1353,292v16c-2.64-.07-4.34-1.75-6.16-3.68l2.26-4.58c-1.33-2.45-5.44-1.41-6.09-4.69,3-3.46,3.6-3.65,6.87-2.08Z" transform="translate(0)"/><path class="cls-4" d="M414,274.5,412.55,276h-7.33l-1.48-2.77c.43-.67.61-1.16.77-1.15a2.31,2.31,0,0,0,2.46-1.92c.71-2.67,2.76-4.27,4.77-6.36l4.21,1.15v3.75L414,270.2Z" transform="translate(0)"/><path class="cls-4" d="M367.78,256.07h-4.23l-2.63-2.59c.4-2,1.46-2.68,2.74-2.53l4,4c6.71.13,7.69.7,8.36,4.43a13.62,13.62,0,0,0-2.62,1.84,17.92,17.92,0,0,0-1.82,3.27c-1.87-2.18-5.19-.43-6.63-3.18Z" transform="translate(0)"/><path class="cls-4" d="M347.2,290.32,343,293.9h-7.16l-1-3.53,5.27-5.27H342Z" transform="translate(0)"/><path class="cls-4" d="M364.31,317.95l-1.52,3.19c-3.84-2-7.67-.71-10.89-1.65l-2.1-.9c.3-.83.32-1.23.53-1.39,1.76-1.38,3.55-2.71,5.73-4.36C358.52,314.29,361.88,314.85,364.31,317.95Z" transform="translate(0)"/><path class="cls-4" d="M1290.2,315c-.33-1.95-.55-3.55,1-4.72l7.95-.84c2.08,0,1.38,2.18,2.23,3.35s2.07,2.09,1.38,4.14l-2.38.11-1.65-2Z" transform="translate(0)"/><path class="cls-4" d="M1240.55,284.61l8.11-2.84,4.44,4.39-.84,2.26c-3.94,2.13-6.52-1.5-9.77-1.52C1241.92,286.9,1241.34,285.57,1240.55,284.61Z" transform="translate(0)"/><path class="cls-4" d="M408.9,232.51c.25-3.79,2.92-3.84,5.15-4.72,2.65,2,4.35,4.31,3.91,7.74-2.38,1.84-3.54,1.91-5.8.1C411,234.7,410,233.57,408.9,232.51Z" transform="translate(0)"/><path class="cls-4" d="M380.34,270.46l-4.42,2.79c-2.11-1-4.84-1-5-4.73l3.05-1.87-.56-.61h2.74Z" transform="translate(0)"/><path class="cls-4" d="M1292.19,297.69l-1.43-1.43,1.12-3,7.6-1.39c1.72,2.54,1.72,2.54.33,4.82Z" transform="translate(0)"/><path class="cls-2" d="M149,458.94c-.34.91-.71,1.75-1,2.63-.93,2.91-2,3.15-5.22.81l1.11-6.26h3.7Z" transform="translate(0)"/><path class="cls-4" d="M331,363.71l.08-1.56h3.57L337,364.5v3.3l-2.41.27Z" transform="translate(0)"/><path class="cls-4" d="M520.17,417.09h3.66v4.74l-3.66.21Z" transform="translate(0)"/><path class="cls-4" d="M384,201c.76.15,1.91-.5,2,1l-2,1.6Z" transform="translate(0)"/><path class="cls-1" d="M1353,271h-2.55l-5.37-8c.31-1.81.31-1.81,2.94-4.47V255h5Z" transform="translate(0)"/><path class="cls-1" d="M656.22,498h4.52l2,3.12,8-1.22,4.55,7.29L673,512.88h-5.78c-1.95-2.6-2.5-5.5-2.18-9l-10,1.25-5.39-2.77,1.6-2.31h3.22Z" transform="translate(0)"/><path class="cls-1" d="M581.83,473.67l1.62-1.62c2.83-.29,5.46.06,7.5,2.43v4.65L587.79,484l1.47,4.5L586,490.53l-2.8-3.83Z" transform="translate(0)"/><path class="cls-1" d="M575.06,472.75l6.16,4.44L576.73,479l.85.9c-2.73.38-5-.41-7.06-3.17l4.82-2.74Z" transform="translate(0)"/><path class="cls-1" d="M956,525.26c3.34-1.08,5.31,1.41,7.91,2v2.53h-4.56L956,527.7Z" transform="translate(0)"/><path class="cls-1" d="M1353,526v5h-1.82l-.22-5Z" transform="translate(0)"/><path class="cls-2" d="M334,209.88c.39,3.6-3.73,3-4.49,5.14-4.23-.55-5.28-4.18-7.75-6.9l1.36-3.41,7.39,1.29Z" transform="translate(0)"/><path class="cls-2" d="M198.35,201.65l3.55,1.28v4.36L199.3,211c-2.35.5-3.14-1.52-4.49-2.83Z" transform="translate(0)"/><path class="cls-1" d="M313.09,213c-.34-2.24.19-3.44,1.84-4,2.81,3.42,2.81,3.42,2.83,6.21Z" transform="translate(0)"/><path class="cls-2" d="M70.12,169.1h2.5c.19,2.45.19,2.45-2,4C69.53,171.87,70.12,170.51,70.12,169.1Z" transform="translate(0)"/><path class="cls-2" d="M814.43,133.87l2.44,4.77v4l-1.28,1.28h-9.77l-5.69-3.53v-3.14A12.28,12.28,0,0,1,807,135C809.53,135,812.15,135.48,814.43,133.87Z" transform="translate(0)"/><path class="cls-2" d="M1248.71,214.08h3.52l5.7,4.33v13.72l-4.73,1.25-.28-3-2.92-2.43c0-2.75.15-5.08,0-7.37A64.43,64.43,0,0,0,1248.71,214.08Z" transform="translate(0)"/><path class="cls-2" d="M1036.89,75.51l3.07,2.4h4.77l9.66,5.65-4.56,3.67c-1.38,1.05-3.06.07-4.36-1.31a22.76,22.76,0,0,0-12.05-7c-.55-.12-.95-.89-1.42-1.36,0-1,0-2,0-2.94,1.32-.86,2.58-1.79,3.95-2.52.49-.26,1.23,0,2.33,0Z" transform="translate(0)"/><path class="cls-2" d="M1217.86,212.78c.46-3.71,3.93-6.4,3-10.57l3-1.38L1238,212.43v3.47l-2.43.13-1.47-3.89h-4.42l-2-2h-4.05C1221.92,210.8,1221.28,213.73,1217.86,212.78Z" transform="translate(0)"/><path class="cls-2" d="M1092,131.68l7.27,1.28c2.33,2.05,2.29,2.09,2.76,4.61l-5.89,5.32c-4.08.21-7.65.67-10.38-2.68C1087.21,136.83,1092.37,136.49,1092,131.68Z" transform="translate(0)"/><path class="cls-2" d="M1107.5,174l2.46,2.47c0,1.59.67,3.4-1.83,4.47h-4l-4.41-5-5.94,1.21c-2.29-1.35-1.82-3.07-1.71-5.1a68.86,68.86,0,0,0,8.26-.07C1103.14,171.59,1104.76,174.6,1107.5,174Z" transform="translate(0)"/><path class="cls-2" d="M1124,130.05h4.17l4.71,4.73a9.08,9.08,0,0,1,7.13,3.89l-.15,3c-4-3.36-8.23-2.54-12.36-2.63l-4.69-6Z" transform="translate(0)"/><path class="cls-2" d="M1069.72,119.59l2.18-1.7,4.3,1.24c2.5-1.39,1.5-5.15,4.87-6.12h3.45c.48.49,1.14.88,1.37,1.45a6.6,6.6,0,0,1,.05,2.2c-2,1.06-4.26,2.11-6.35,3.39a3.89,3.89,0,0,0-1.54,2.27,4.18,4.18,0,0,1-4.33,3.71C1071.65,124.62,1070.48,122.64,1069.72,119.59Z" transform="translate(0)"/><path class="cls-2" d="M1110.08,115.3a4.62,4.62,0,0,1,.65-1.48c.94-1.25,2.32-2,2.4-4,.06-1.67,1.81-2,2.84-1.85l6.2,6.2c-2.82,1.67-4.38,4.8-6.73,6.93Z" transform="translate(0)"/><path class="cls-2" d="M1083,191.05h5.57l1.24-2h3.75l2.36,2.85v2.76l-3.42,2.26h-8.07l-2.74-2.67Z" transform="translate(0)"/><path class="cls-2" d="M1103.8,127.19c-2.51-2.09-2.15-3.56-.38-5.09h8.18l1.24,1.24v4.32l-1.44,1.44C1108.9,128.23,1106.61,125.91,1103.8,127.19Z" transform="translate(0)"/><path class="cls-1" d="M581.15,226.07c2.53-.43,3.66.64,4.12,2.83h5.29l-.43.59,2.63,1.17-2.15,2.27h-6.06L581,228.87Z" transform="translate(0)"/><path class="cls-2" d="M1060,109.17l-4.19,2.37c-1.83-3.3-5.23-3.62-8.23-5.27l1.76-2.16H1054Z" transform="translate(0)"/><path class="cls-2" d="M913.89,99.56a6.85,6.85,0,0,1,1.51-1.39,7.16,7.16,0,0,1,2.13-.23c1,1.78,3.8,2.44,3.52,5l-3.89,3.92C915.46,105.8,915.46,105.8,913.89,99.56Z" transform="translate(0)"/><path class="cls-2" d="M823.5,160c-1-2.44-4.66-2.55-6.11-6,4.25.09,8-.94,10.66,2.62C826.35,159.43,826.42,159.68,823.5,160Z" transform="translate(0)"/><path class="cls-2" d="M871.26,151.94c-1.21-.07-2.33.2-2.94-.24a8.27,8.27,0,0,0-3.76-1.85c-2-.31-2-2.12-.2-4.74h4.24c1.26.8,1.46,2,1.48,3.39C870.08,149.5,870.73,150.49,871.26,151.94Z" transform="translate(0)"/><path class="cls-2" d="M1107.53,157.06l1.84-2h4.35l2.13,3.2v3.55l-2,.17Z" transform="translate(0)"/><path class="cls-2" d="M805.13,110c-.49,0-1.08.17-1.46,0-1.23-.65-2.4-1.44-3.57-2.17v-2.43l8.79-1.36.15,2.5Z" transform="translate(0)"/><path class="cls-2" d="M1018.42,87h2.22l2.26,2.88c0,1,.78,2.75-1.72,4-1,.14-2.65.56-4-1.21C1016.26,90.67,1017.57,88.93,1018.42,87Z" transform="translate(0)"/><path class="cls-2" d="M1094.92,104.91l4.57-5.9h2.3l.25,3.45-6.54,6.54Z" transform="translate(0)"/><path class="cls-2" d="M1175.86,146.41l3.27-1.76c1.62-1.26,2.48.69,4.13,2l-1.15,3.16C1176.81,150,1176.81,150,1175.86,146.41Z" transform="translate(0)"/><path class="cls-2" d="M1154.15,147.33c-2.64-1.62-2.68-4.08-3.14-6.31-.31-1.5.51-2.43,2-3.09,3.37,1.14,1.17,4.93,3.52,6.72Z" transform="translate(0)"/><path class="cls-2" d="M1025,142.84v-4.47l5.34-1.56,1.21,2.29-3.87,3.87Z" transform="translate(0)"/><path class="cls-2" d="M1121.7,102.23l4.67-.27,4,2.63-1.71,2.39h-3.21C1124.35,105.55,1122.49,104.62,1121.7,102.23Z" transform="translate(0)"/><path class="cls-2" d="M1158.17,138.09h4.46l1.56,1.73-4.47,4.08-1.55-1.07Z" transform="translate(0)"/><path class="cls-2" d="M931.25,134h2.26l2.47,2.5v2.58l-1.7,2.46-3-2.73Z" transform="translate(0)"/><path class="cls-2" d="M1182,128.5l-1.42,1.4c-1.77.17-3.62.55-4.73-1.94l2.6-3C1181.69,125.45,1181.69,125.46,1182,128.5Z" transform="translate(0)"/><path class="cls-2" d="M1063.09,177.84v-3.43l1.39-1.39c3.92.51,4.36,1.39,2.24,4.82Z" transform="translate(0)"/><path class="cls-2" d="M539.86,176.31l-3.71-1.11v-3.85c.85-1,1.9-2,3.71-1Z" transform="translate(0)"/><path class="cls-2" d="M482.08,185.08h3.54l-.48.52,2,.79c-.62,2.28-1.88,2.94-3.4,2.55S481.75,187.1,482.08,185.08Z" transform="translate(0)"/><path class="cls-2" d="M1002.85,64.08h3.94l.34,1.76-3.9.19Z" transform="translate(0)"/><path class="cls-1" d="M377.83,201.92h-1.67v-2.83h1.67Z" transform="translate(0)"/></svg>